<?xml version="1.0" encoding="utf-8"?>
<!-- Generator: Adobe Illustrator 27.5.0, SVG Export Plug-In . SVG Version: 6.00 Build 0)  -->
<svg version="1.1" xmlns="http://www.w3.org/2000/svg" xmlns:xlink="http://www.w3.org/1999/xlink" x="0px" y="0px"
	 viewBox="0 0 450 450" style="enable-background:new 0 0 450 450;" xml:space="preserve">
<g id="Layer_1">
	<rect style="fill:#FFFFFF;" width="450" height="450"/>
	
		<radialGradient id="SVGID_1_" cx="-117.5324" cy="627.9697" r="32.9291" gradientTransform="matrix(2.5546 0 0 0.2801 577.1516 236.7444)" gradientUnits="userSpaceOnUse">
		<stop  offset="0" style="stop-color:#C4CCCC"/>
		<stop  offset="0.2357" style="stop-color:#CAD1D1"/>
		<stop  offset="0.5461" style="stop-color:#DADFDF"/>
		<stop  offset="0.8969" style="stop-color:#F6F7F7"/>
		<stop  offset="1" style="stop-color:#FFFFFF"/>
	</radialGradient>
	<path style="fill:url(#SVGID_1_);" d="M361.04,412.641c0,5.092-37.668,9.22-84.135,9.22c-46.471,0-84.139-4.128-84.139-9.22
		c0-5.096,37.668-9.224,84.139-9.224C323.372,403.417,361.04,407.545,361.04,412.641z"/>
	
		<radialGradient id="SVGID_00000088818072769494052490000014839156016754143388_" cx="-165.3508" cy="662.7587" r="32.9301" gradientTransform="matrix(2.2648 0 0 0.2491 528.0374 255.0899)" gradientUnits="userSpaceOnUse">
		<stop  offset="0" style="stop-color:#C4CCCC"/>
		<stop  offset="0.2357" style="stop-color:#CAD1D1"/>
		<stop  offset="0.5461" style="stop-color:#DADFDF"/>
		<stop  offset="0.8969" style="stop-color:#F6F7F7"/>
		<stop  offset="1" style="stop-color:#FFFFFF"/>
	</radialGradient>
	<path style="fill:url(#SVGID_00000088818072769494052490000014839156016754143388_);" d="M228.142,420.185
		c0,4.527-33.395,8.199-74.589,8.199c-41.199,0-74.593-3.672-74.593-8.199c0-4.533,33.394-8.204,74.593-8.204
		C194.747,411.981,228.142,415.652,228.142,420.185z"/>
</g>
<g id="Layer_3">
	<g>
		<path style="fill:#4B656D;" d="M131.763,394.58c-0.084,0.012-0.252,0.787-0.351,0.934
			C131.434,395.626,131.332,396.493,131.763,394.58z"/>
		<path style="fill:#4B656D;" d="M131.386,395.545c0.008-0.001,0.018-0.018,0.026-0.031
			C131.408,395.493,131.401,395.495,131.386,395.545z"/>
		<path style="fill:#3E5860;" d="M188.526,268c3.997,0.8,7.341,2.729,9.933,5.383c2.589-17.29,8.842-49.087-6.21-77.245
			l-28.677,1.69l-25.982,1.18c-4.428,12.93-7.283,53.215-9.085,75.915c2.108-3.065,4.864-5.292,8.021-5.923
			c8.112-1.475,14.046,3.578,18.209,10.343c2.676-8.413,6.082-18.585,8.837-29.104c2.713-8.36,2.376,6.86,4.39,23.119
			C172.892,268.526,182.016,268,188.526,268z"/>
		<path style="fill:#4B656D;" d="M195.862,393.975c-0.488-4.01-1.383-12.495-1.283-17.025l3.009-27.753
			c2.246-18.931,0.234-31.52-0.418-42.41c-0.828-13.424,0.571-11.012,0.373-24.416c-0.033-2.195,0.358-5.261,0.916-8.987
			c-2.592-2.653-5.936-4.583-9.933-5.383c-6.511,0-15.635,0.526-20.564,5.358c0.502,4.046,1.145,8.155,2.021,11.983
			c2.727,12.292,1.2,15.07,3.051,30.01c0.677,5.572-1.524,19.797,1.368,34.482c2.263,11.485,8.441,29.367,8.376,45.976
			c-0.018,4.27-0.438,8.455-1.456,12.427c1.023,11.969,16.838,21.842,25.97,10.809C200.031,415.156,202.049,406.517,195.862,393.975
			z"/>
		<path style="fill:#4B656D;" d="M136.526,269c-3.156,0.631-5.912,2.858-8.021,5.923c-0.495,6.236-0.91,11.148-1.257,13.798
			c-1.689,13.302-3.153,20.45-2.776,41.471c0.091,5.057-0.116,35.015-5.926,60.898c1.002-4.793-1.497,6.383-1.716,6.255
			c-0.89,10.788-6.677,19.416-11.896,23.24c7.54,7.831,24.471-7.76,29.447-10.182c-0.538-2.765-2.979-7.189-3.315-11.369
			c0.089-1.226,0.198-2.374,0.318-3.489c1.449-12.291,4.884-19.26,8.23-32.274c1.766-6.657,5.958-14.89,7.607-22.114
			c3.451-14.741,3.282-30.896,3.055-43.515c-0.072-3.539,1.844-10.08,4.458-18.299C150.572,272.578,144.639,267.525,136.526,269z"/>
		<g>
			<g>
				<path style="fill:#E6E6E6;" d="M132.208,404.882l0.206,1.671c-1.779,5.318-16.353,15.203-17.764,1.703
					c-0.962-6.733-6.14,10.316-18.535,12.796c-1.929,0.387-2.963,1.374-3.163,2.468c8.392,8.035,23.16-0.503,31.442-4.184
					c3.316-1.658,4.193,4.692,10.604,1.872C139.534,417.196,136.947,403.942,132.208,404.882z"/>
				<path style="fill:#998675;" d="M124.394,419.336c-8.282,3.681-23.051,12.219-31.442,4.184c0.206-1.128-2.154,7.651,14.898,5.153
					c6.545-0.96,13.668-3.525,23.654-4.821c7.119-0.924,6.097-4.035,5.793-5.69C132.451,422.621,127.711,417.678,124.394,419.336z"
					/>
				<path style="fill:#FAFAFA;" d="M101.773,422.643c5.047-1.777,11.933-5.689,12.987-11.274
					c-4.111,4.774-10.267,9.685-18.538,10.985c-0.998-0.141-1.652-0.141-1.652,0.962c0,0.764,0.89,0.946,0.926,1.064
					c3.383,1.793,11.379,3.61,20.677-3.126C108.565,425.639,103.339,423.412,101.773,422.643z"/>
				<path style="fill:#FAFAFA;" d="M133.052,405.685c3.399,3.279-3.57,6.714-4.457,8.929c3.185,1.926,10.078-8.199,5.311-9.006
					L133.052,405.685z"/>
			</g>
			<g>
				<path style="fill:#998675;" d="M190.164,420.04c-3.533-1.514-5.917-3.483-8.389-6.831c0.164,1.103,0.335,2.015,0.482,2.606
					c1.333,5.379,7.075,11.389,20.058,9.452c4.868-0.726,7.087-4.255,5.443-8.309C206.323,422.868,195.367,422.642,190.164,420.04z"
					/>
				<path style="fill:#E6E6E6;" d="M191.396,421.253c3.639,1.752,17.296,0.693,16.362-4.294c-1.488-3.674-5.796-9.604-8.168-13.219
					c1.053,3.496-0.174,2.979-3.575-3.514c-1.785-3.409-8.518-2.193-8.18,3.615c-0.025,2.807,1.055,5.438-0.71,5.92
					c-3.307-0.593-4.781-7.313-4.43-10.945c-2.626,3.952-1.686,9.266-0.921,14.393C184.606,417.761,187.129,419.424,191.396,421.253
					z"/>
				<path style="fill:#FAFAFA;" d="M182.905,413.641c3.725,4.838,10.214,7.91,15.663,7.462c6.544-0.537,9.217-3.255,6.973-6.727
					c0.407,5.854-13.564,7.62-14.803,0.646c-1.293,1.852,0.346,3.38,1.56,4.142C189.778,418.161,185.539,416.108,182.905,413.641
					L182.905,413.641z"/>
				<path style="fill:#FAFAFA;" d="M189.51,408.418c-0.167-1.67-1.32-3.412-0.538-6.183c1.499-5.308,6.977-3.895,9.063,4.055
					c-1.449-2.917-6.371-2.907-8.395,1.596L189.51,408.418z"/>
			</g>
			<g>
				<path style="fill:#4B656D;" d="M102.666,418.131c1.737-0.601,3.642,2.595,5.2,3.057c0.344,0.102,1.165,0.103,1.005-0.489
					c-0.079-0.294-1.071-0.602-1.38-0.766c-0.968-0.517-1.703-1.275-2.553-1.942c-0.796-0.626-1.718-0.746-2.336,0.203
					L102.666,418.131z"/>
				<path style="fill:#4B656D;" d="M104.608,416.564c2.054-0.926,3.458,2.592,5.39,2.881c0.378,0.057,1.305-0.034,0.878-0.629
					c-0.173-0.243-1.254-0.482-1.567-0.671c-1.042-0.627-1.777-1.765-2.897-2.255C105.808,415.625,104.425,415.587,104.608,416.564
					L104.608,416.564z"/>
				<path style="fill:#4B656D;" d="M106.739,414.621c1.323-0.433,2.606,1.179,3.508,1.895c0.544,0.433,2.784,2.273,3.127,0.75
					c-1.391-0.276-2.59-1.226-3.675-2.142c-0.563-0.476-0.965-0.919-1.707-1.066c-0.474-0.092-1.466-0.035-1.253,0.626V414.621z"/>
				<path style="fill:#4B656D;" d="M108.368,412.866c0.888-0.468,1.011-0.189,1.633,0.173c0.726,0.423,1.378,1.103,2.016,1.645
					c0.375,0.318,3.2,1.791,3.14,0.174c-0.868-0.043-1.45-0.046-2.15-0.551c-0.637-0.457-1.434-0.926-2.02-1.44
					c-0.516-0.452-1.136-0.749-1.866-0.752C108.499,412.112,108.368,412.364,108.368,412.866L108.368,412.866z"/>
				<path style="fill:#4B656D;" d="M191.68,412.222c-0.2,0.348-0.102,0.904,0.275,1.185c1.15,0,0.923-0.566,1.413-1.014
					c0.518-0.476,1.03-0.958,1.667-1.186c1.223-0.436,2.767-0.46,4.013,0c0.332,0.123,1.175,0.202,1.458-0.091
					c0.639-0.663-1.081-1.277-1.458-1.415c-1.362-0.495-2.513-0.175-3.865,0.217C193.786,410.324,192.627,411.06,191.68,412.222
					L191.68,412.222z"/>
				<path style="fill:#4B656D;" d="M190.653,409.743c-0.195,0.219-0.351,1.267,0.105,1.438c0.401,0.152,0.646-0.453,0.855-0.669
					c0.65-0.68,1.413-1.261,2.288-1.646c1.727-0.757,3.276-0.887,5.024-0.331c1.539-1.465-2.376-1.711-4.17-1.166
					c-1.111,0.338-3.643,1.357-4.188,2.458L190.653,409.743z"/>
				<path style="fill:#4B656D;" d="M189.629,407.265c-0.08,0.372-0.215,1.256,0.342,1.396c0.38,0.095,0.548-0.361,0.79-0.603
					c0.692-0.686,1.394-1.059,2.288-1.457c0.775-0.345,1.54-0.609,2.39-0.617c0.922-0.008,1.776,0.524,2.637,0.414
					c0.887-1.778-3.639-1.441-4.363-1.287c-1.382,0.294-3.5,1.279-4.168,2.668L189.629,407.265z"/>
			</g>
			<path style="fill:#4B656D;" d="M189.465,404.946c-0.287,0.163-0.362,0.627-0.33,1.012c0.592,0.101,1.388-0.76,1.867-1.073
				c0.697-0.458,1.416-0.76,2.218-0.966c0.777-0.2,1.488-0.253,2.311-0.254c0.751-0.001,1.363,0.373,2.036,0.326
				c0.97-1.651-3.657-1.232-4.343-1.096c-1.678,0.339-3.483,0.78-4.187,2.563L189.465,404.946z"/>
		</g>
		<path style="fill:#96CAD9;" d="M195.526,122c-0.071,1.346-0.031,2.599,0.09,3.783C195.638,124.522,195.623,123.261,195.526,122z"
			/>
		<path style="fill:#EABE99;" d="M272.935,188.115c-6.816-3.654-38.122-20.469-44.203-24.706c-6.37-4.44-15.187-9.332-21.529-13.905
			c-6.709-4.838-15.155-9.29-9.974-18.485c1.805-3.204,4.56-6.742,8.084-6.131c3.726,0.646,6.469,1.473,9.214,3.876
			c4.421,3.871,6.018,7.85,9.755,12.466c3.321,4.103,9.924,7.034,14.393,9.897c12.872,8.245,31.171,33.559,42.279,27.592
			L272.935,188.115z"/>
		<path style="fill:#7198A3;" d="M192.636,146.266c1.203-6.828,2.861-13.655,2.98-20.483l0,0
			c1.179,11.574,11.047,15.897,21.004,21.569c3.175-5.244,5.983-10.269,6.42-14.527c-3.147,1.279-26.553-25.452-35.456-26.55
			c-8.472,0-45.104,0.622-45.232,0.614c-12.492,1.118-8.374,25.003-7.439,31.451c0,7.171,1.129,5.495,3.357,9.684
			c3.518,6.614,3.024,12.357,1.365,22.376c-1.251,7.558-10.048,69.817-14.946,88.831c3.907,1.624,6.569,5.597,22.863,7.478
			c11.666,2.132,15.584,2.823,49.043-4.11l9.729-3.367c-0.422-22.214-4.122-39.761-7.965-53.483
			c-0.834-2.976-1.673-5.773-2.487-8.396c-4.078-13.133-8.722-16.375-7.524-21.971c1.838-8.588,7.584-33.064,5.221-28.889
			c-0.828,1.463-0.113-0.577,0.23-2.086C193.725,143.857,192.031,146.282,192.636,146.266z"/>
		<path style="fill:#EFC39E;" d="M178.263,116.976c3.068-6.286,3.799-10.7,3.799-10.7s-8.25,0.015-8.25-2.229
			c-0.292-0.085,0.237-21.162,0.237-21.162l-19.233-0.345l-0.414,21.404c0.085,2.332-8.633,2.968-8.633,2.968
			s1.034,2.98,3.515,7.774C157.845,119.317,168.674,119.848,178.263,116.976z"/>
		<path style="fill:#3B696E;" d="M180.794,110.979c-9.589,2.872-25.106,3.872-33.668-0.76c2.45,7.567,9.978,15.178,17.406,22.606
			C171.59,125.448,179.2,118.744,180.794,110.979z"/>
		
			<linearGradient id="SVGID_00000087379909947392060960000013787154382610653617_" gradientUnits="userSpaceOnUse" x1="330.2441" y1="116.0264" x2="330.2441" y2="90.4644" gradientTransform="matrix(-1 0 0 1 494.6035 0)">
			<stop  offset="0.3818" style="stop-color:#FFFFFF"/>
			<stop  offset="0.4905" style="stop-color:#FCFAF9"/>
			<stop  offset="0.6347" style="stop-color:#F4EBE8"/>
			<stop  offset="0.7987" style="stop-color:#E6D3CD"/>
			<stop  offset="0.9762" style="stop-color:#D4B2A7"/>
			<stop  offset="1" style="stop-color:#D1ADA1"/>
		</linearGradient>
		<polygon style="fill:url(#SVGID_00000087379909947392060960000013787154382610653617_);" points="155.559,116.026 172.1,116.026 
			174.162,90.464 154.557,90.464 		"/>
		<path style="fill:#FEDCB9;" d="M162.73,33.95l4.243,0.14c13.508,0.448,21.873,9.482,21.736,25.024
			c-0.063,7.025-1.049,22.862-7.949,30.129c-9.669,10.18-14.225,9.59-15.688,9.521c-1.227,0.067-6.126,1.334-16.055-10.199
			c-6.775-7.87-7.441-25.184-7.21-31.774C142.349,41.471,149.226,33.501,162.73,33.95z"/>
		<g>
			<path style="fill:#A6636B;" d="M167.809,80.049c1.596-0.658-0.72-1.665-1.378-0.102c0.296,0.446,0.821,0.325,1.273,0.204
				L167.809,80.049z"/>
			<path style="fill:#A6636B;" d="M164.443,80.049c-0.454-2.349-3.484,0.043-0.315,0.102L164.443,80.049z"/>
		</g>
		<g>
			<path style="fill:#4D2B3D;" d="M171.345,84.551c0.596-0.166,1.149-0.354,1.652-0.559c-0.017,0.012-0.033,0.025-0.049,0.037
				c-0.363,0.263-0.722,0.514-1.085,0.743c-0.71,0.454-1.42,0.847-2.141,1.157c0.181-0.36,0.387-0.725,0.517-1.114
				C170.62,84.735,170.992,84.648,171.345,84.551z"/>
			<path style="fill:#4D2B3D;" d="M157.811,84.241c0.316,0.109,0.647,0.213,0.994,0.308c0.473,0.131,0.977,0.246,1.499,0.346
				c0.11,0.312,0.198,0.632,0.286,0.957c-0.671-0.302-1.338-0.662-1.999-1.086C158.33,84.601,158.07,84.423,157.811,84.241z"/>
			<path style="fill:#FFFFFF;" d="M165.072,85.331c1.802,0.002,3.592-0.184,5.168-0.516c-0.131,0.389-0.337,0.754-0.517,1.114
				c-0.015,0.007-0.027,0.013-0.041,0.02c-1.465,0.635-2.958,0.965-4.454,0.961c-1.495-0.004-2.988-0.335-4.453-0.972
				c-0.062-0.026-0.124-0.057-0.185-0.085c-0.088-0.325-0.176-0.645-0.286-0.957C161.779,85.178,163.422,85.332,165.072,85.331z"/>
			<path style="fill:#A8250E;" d="M156.601,83.752c0.681,1.71,1.824,3.188,3.232,4.277c1.558,1.203,3.47,1.881,5.393,1.878
				c1.922,0.005,3.837-0.669,5.395-1.875c1.46-1.132,2.633-2.68,3.303-4.469c0.59-0.313,1.068-0.656,1.406-1.023
				c-0.44,0.118-0.86,0.234-1.281,0.345c-0.422,0.109-0.839,0.213-1.262,0.31c-0.84,0.192-1.681,0.358-2.535,0.489
				c-1.703,0.265-3.438,0.402-5.176,0.4c-1.738-0.001-3.473-0.139-5.177-0.404c-0.852-0.133-1.698-0.295-2.538-0.488
				c-0.423-0.095-0.839-0.199-1.263-0.308c-0.422-0.11-0.843-0.226-1.283-0.343C155.221,82.981,155.834,83.39,156.601,83.752z
				 M157.811,84.241c0.316,0.109,0.647,0.213,0.994,0.308c1.81,0.502,4.033,0.784,6.268,0.782c2.234,0.002,4.461-0.278,6.272-0.78
				c0.596-0.166,1.149-0.354,1.652-0.559c-0.017,0.012-0.033,0.025-0.049,0.037c-0.363,0.263-0.722,0.514-1.085,0.743
				c-0.723,0.462-1.447,0.862-2.182,1.177c-1.465,0.635-2.958,0.965-4.454,0.961c-1.495-0.004-2.988-0.335-4.453-0.972
				c-0.733-0.318-1.461-0.707-2.184-1.171C158.33,84.601,158.07,84.423,157.811,84.241z"/>
		</g>
		<g>
			<path style="fill:#FFFFFF;" d="M159.991,70.882c0,0-2.575,1.089-5.908,1.089c-3.333,0-6.034-2.444-6.034-4.686
				c0-2.241,2.701-3.431,6.034-3.431C157.416,63.854,159.591,68.574,159.991,70.882z"/>
			<path style="fill:#754C24;" d="M157.607,67.717c0,1.827-1.581,3.308-3.531,3.308c-1.951,0-3.533-1.481-3.533-3.308
				c0-1.827,1.582-3.309,3.533-3.309C156.026,64.408,157.607,65.89,157.607,67.717z"/>
			<path d="M156.097,67.717c0,1.066-0.929,1.931-2.076,1.931c-1.147,0-2.076-0.864-2.076-1.931c0-1.065,0.929-1.93,2.076-1.93
				C155.168,65.787,156.097,66.651,156.097,67.717z"/>
			<path style="fill:#FFFFFF;" d="M153.471,67.912c0,0.474-0.414,0.858-0.924,0.858c-0.509,0-0.923-0.385-0.923-0.858
				c0-0.473,0.414-0.858,0.923-0.858C153.057,67.054,153.471,67.439,153.471,67.912z"/>
			<path style="fill:#AA7A54;" d="M147.729,67.054c0.079-0.321,0.588-1.225,0.816-1.489c0.229-0.265,0.506-0.491,0.8-0.694
				c0.594-0.402,1.275-0.685,1.987-0.868c1.422-0.36,3.028-0.434,4.431,0.12c0.698,0.276,1.318,0.805,1.866,1.285
				c0.548,0.48,1,1.041,1.348,1.641c0.697,1.203,1.01,2.53,1.014,3.833c-0.515-1.212-0.617-1.991-1.392-2.97
				C154.756,63.778,148.148,66.53,147.729,67.054z"/>
			<path style="fill:#2A191B;" d="M148.404,66.054c-0.794,0.176,0.085,6.862,7.692,5.79
				C149.334,73.936,145.813,66.17,148.404,66.054L148.404,66.054z"/>
			<g>
				<path style="fill:#2A191B;" d="M143.973,65.904c0.822,0.486,2.258,0.697,3.208,0.742c0.318,0.015,0.653-0.032,0.996-0.113
					c-1.194-0.01-2.447-0.596-3.074-1.069c0.649,0.315,1.906,0.596,2.627,0.707c0.235,0.036,0.665,0.082,1.152,0.102
					c0.064-0.038,0.131-0.071,0.196-0.108c-0.267-0.017-0.516-0.051-0.674-0.11c-0.694-0.266-1.801-0.763-2.278-1.296
					c0.762,0.491,2.087,0.957,3.435,1.159c0.161-0.074,0.325-0.145,0.492-0.211c-1.238-0.388-1.848-0.813-2.324-1.298
					c0.733,0.552,1.823,0.868,2.907,1.098c0.286-0.085,0.578-0.156,0.877-0.209c1.272-0.233,2.631-0.116,3.851,0.319
					c1.223,0.434,2.312,1.156,3.155,2.06c0.425,0.449,0.787,0.949,1.066,1.486c0.134,0.272,0.253,0.549,0.329,0.839
					c0.076,0.288,0.119,0.59,0.075,0.88c-0.108-0.573-0.414-1.071-0.757-1.53c-0.343-0.46-0.749-0.876-1.182-1.258
					c-0.875-0.755-1.846-1.503-2.983-1.751c-3.246-0.707-6.471,0.255-6.973,0.456C146.883,67.157,144.874,66.755,143.973,65.904z"/>
				<path style="fill:#2A191B;" d="M145.881,67.405c0.646-0.12,1.368-0.189,1.969-0.468l0.199,0.348
					c-2.571,1.011-4.356,0.044-5.143-0.453C143.973,67.33,145.205,67.532,145.881,67.405z"/>
			</g>
		</g>
		<g>
			<path style="fill:#FFFFFF;" d="M170.269,70.882c0,0,2.575,1.089,5.908,1.089c3.332,0,6.033-2.444,6.033-4.686
				c0-2.241-2.701-3.431-6.033-3.431C172.844,63.854,170.668,68.574,170.269,70.882z"/>
			<path style="fill:#754C24;" d="M172.651,67.717c0,1.827,1.581,3.308,3.532,3.308s3.532-1.481,3.532-3.308
				c0-1.827-1.581-3.309-3.532-3.309S172.651,65.89,172.651,67.717z"/>
			<path d="M174.162,67.717c0,1.066,0.93,1.931,2.077,1.931c1.146,0,2.076-0.864,2.076-1.931c0-1.065-0.93-1.93-2.076-1.93
				C175.092,65.787,174.162,66.651,174.162,67.717z"/>
			<path style="fill:#FFFFFF;" d="M173.527,67.912c0,0.474,0.414,0.858,0.924,0.858c0.51,0,0.922-0.385,0.922-0.858
				c0-0.473-0.412-0.858-0.922-0.858C173.941,67.054,173.527,67.439,173.527,67.912z"/>
			<path style="fill:#AA7A5C;" d="M182.529,67.054c-0.079-0.321-0.587-1.225-0.815-1.489c-0.23-0.265-0.508-0.491-0.801-0.694
				c-0.594-0.402-1.275-0.685-1.986-0.868c-1.423-0.36-3.001-0.435-4.401,0.12c-0.699,0.276-1.349,0.805-1.896,1.285
				c-0.547,0.48-1.001,1.041-1.348,1.641c-0.696,1.203-1.01,2.53-1.013,3.833c0.514-1.212,0.617-1.991,1.391-2.97
				C175.503,63.778,182.111,66.53,182.529,67.054z"/>
			<path style="fill:#2A191B;" d="M181.854,66.054c0.794,0.176-0.745,6.765-8.352,5.692
				C180.265,73.839,184.446,66.17,181.854,66.054L181.854,66.054z"/>
			<g>
				<path style="fill:#2A191B;" d="M186.286,65.904c-0.823,0.486-2.257,0.697-3.208,0.742c-0.318,0.015-0.653-0.032-0.996-0.113
					c1.194-0.01,2.445-0.596,3.075-1.069c-0.648,0.315-1.907,0.596-2.628,0.707c-0.235,0.036-0.665,0.082-1.152,0.102
					c-0.064-0.038-0.131-0.071-0.196-0.108c0.268-0.017,0.516-0.051,0.674-0.11c0.694-0.266,1.801-0.763,2.278-1.296
					c-0.762,0.491-2.086,0.957-3.435,1.159c-0.161-0.074-0.325-0.145-0.493-0.211c1.238-0.388,1.847-0.813,2.324-1.298
					c-0.733,0.552-1.823,0.868-2.907,1.098c-0.286-0.085-0.579-0.156-0.877-0.209c-1.271-0.233-2.631-0.116-3.852,0.319
					c-1.223,0.434-2.311,1.156-3.156,2.06c-0.424,0.449-0.786,0.949-1.065,1.486c-0.134,0.272-0.253,0.549-0.329,0.839
					c-0.075,0.288-0.119,0.59-0.074,0.88c0.106-0.573,0.414-1.071,0.757-1.53c0.342-0.46,0.748-0.876,1.181-1.258
					c0.876-0.755,1.885-1.366,2.983-1.751c0.79-0.281,4.192-0.557,6.973,0.456C183.378,67.157,185.385,66.755,186.286,65.904z"/>
				<path style="fill:#2A191B;" d="M184.379,67.405c-0.646-0.12-1.37-0.189-1.97-0.468l-0.199,0.348
					c2.572,1.011,4.357,0.044,5.144-0.453C186.286,67.33,185.056,67.532,184.379,67.405z"/>
			</g>
		</g>
	</g>
	<g>
		<path style="fill:#FED6AF;" d="M305.833,150.108c-1.509-0.822-2.582-3.164-1.767-4.431c0.028,0.005,0.059,0.021,0.087,0.03
			c0-0.013,0.001-0.026,0.002-0.04c0.011-0.055,0.054-0.083,0.109-0.102c-0.682-1.217-1.477-2.782-2.362-4.809
			c-0.761-1.749-6.418-7.823-7.649-9.525c-1.143-1.579-7.794-6.027-13.073-7.139c-0.42,0.514-0.852,1.018-1.267,1.536
			c0.982,1.257,2.143,3.381,3.131,7.519c0.641,2.691,3.872,7.825,5.653,9.718c0.551,0.585,0.969,1.114,1.313,1.613
			c-0.033-0.489,0.244-0.539,0.615-0.387c0.086-0.046,0.159-0.069,0.191-0.027c0.226,0.159,0.425,0.337,0.612,0.525
			c0.326,0.255,0.606,0.528,0.709,0.673c0.317,0.446,0.673,0.973,0.845,1.503c0.212-3.418-5.775-10.625-1.586-9.73
			c1.902,0.406,3.503,1.251,4.877,2.321c1.441,1.121,2.635,2.492,3.656,3.886c2.723,3.714,4.241,7.556,6.103,7.094
			C305.965,150.264,305.901,150.186,305.833,150.108z"/>
		<path style="fill:#FF5F7C;" d="M291.43,144.592c0.277,0.307,0.606,0.528,0.709,0.673c0.317,0.446,0.673,0.973,0.845,1.503
			c0.132,0.399,0.161,0.802-0.022,1.172c-1.178-0.568-2.393-2.265-3.032-3.335l0.095,0.034c-0.008-0.061-0.009-0.109-0.014-0.16
			C289.977,143.991,290.656,143.733,291.43,144.592z"/>
		<path style="fill:#FF5F7C;" d="M304.066,145.677c0.028,0.005,0.059,0.021,0.087,0.03c1.073,0.353,2.335,3.789,2.316,4.662
			l-0.096-0.035c-0.185-0.05-0.365-0.131-0.541-0.227C304.324,149.286,303.251,146.943,304.066,145.677z"/>
	</g>
	<path style="fill:#458282;" d="M189.44,152.681c2.649-4,5.603-10.822,4.828-15.201c-0.186,4.379-5.784,11.335-12.947,11.708
		L189.44,152.681z"/>
	<path style="fill:#EABE99;" d="M121.352,188.847c-9.59-14.887-7.16-20.094,0.108-41.569c1.827-5.399,6.218-18.116,8.066-23.578
		c1.495-4.418,3.788-11.437,6.451-15.145c0.302-0.421-2.05,7.674-1.768,7.211c-0.094,5.93-0.874,12.174-0.024,17.9
		c0.676,4.551,3.684,8.743,4.341,13.019c0.689,4.492-1.823,8.746-3.077,13.595c-1.295,5.001-4.227,8.559-4.988,13.594
		c-4.327-1.583-7.388,9.821-10.693,12.525L121.352,188.847z"/>
	<path style="fill:#7198A3;" d="M127.014,124.212c-1.309,4.238-2.995,8.346-4.288,12.495c-1.11,3.563-6.646,15.04-7.569,17.962
		c4.61,4.96,9.531,5.662,15.304,8.741c3.601-6.501,4.897-13.556,6.955-20.144c-0.753-3.004-1.3-6.206-1.721-9.042
		c-0.773-5.21-1.375-11.005-0.429-16.247c0.378-2.099,5.332-12.188,7.498-9.619l1.575-1.299
		C133.248,104.366,128.901,118.099,127.014,124.212z"/>
	<path style="fill:#55727A;" d="M195.616,125.783c-0.051,2.892-0.385,5.784-0.836,8.676c-2.694,5.541-9.102,13.567-15.668,12.315
		c-12.392-2.363-12.392-2.363-17.023-1.747c-4.327,0.576-7.857,0.841-13.854,0.957c-3.025,0.058-6.271-0.31-8.557-1.94
		c-0.284-0.27-0.576-0.521-0.876-0.749c-1.293-1.289-3.83-12.839-3.861-15.508c0.025,1.042,0.56,13.151,0.961,14.803
		c0.003,0.15,0.025,0.293,0.039,0.438c-1.495,6.425-2.386,14.794-5.481,20.381c1.895,1.386,3.722,2.543,5.377,3.187
		c0.506-1.563,3.326-9.278,4.26-12.433l0.762,22.978c0.003,0.024,1.131-5.142,1.133-5.118c0.872,9.184-7.87,34.707-8.374,59.356
		c3.482-3.605,10.891-46.695,16.607-49.889c-1.033-4.516-6.252-15.165-7.319-29.463c0.374,0.178,2.961,1.638,3.326,1.808
		c6.649,3.095,10.437-2.11,16.175-3.467c5.96-1.409,12.901,4.994,18.326,5.295c2.506,0.139,4.506-0.443,6.341-1.858
		c-0.632,1.839-0.98,3.935-1.577,5.845c-1.655,5.293-6.752,20.048-7.181,25.218c1.313-0.812,4.665-6.508,5.391-7.887
		c4.868,4.145,9.044,20.794,11.917,26.371c-0.643-7.701-8.164-28.227-9.145-31.184c0,0,1.324-6.019,2.224-9.504
		c0.518-2.002,4.487-12.391,5.709-16.054c4.738,1.472,14.705,7.232,15.867,8.361c0,0,3.145-2.455,6.089-7.201
		c0.085-0.137,0.168-0.28,0.253-0.419C209.411,141.751,207.292,136.775,195.616,125.783z"/>
	<g>
		<path style="fill:#D1A387;" d="M159.938,243.788c0.814,0.294,3.591,1.787,3.148-0.247c-0.237-1.089-2.368-1.814-3.138-2.196
			c1.186,0.096,1.934-0.709,0.913-1.76c-0.564-0.578-2.333-0.771-3.136-1.079c-1.032-0.398-1.887-0.807-2.667-1.293
			c0.554,1.975,1.46,3.804,2.451,5.469C158.305,243.128,159.125,243.496,159.938,243.788z"/>
		<path style="fill:#EFC39E;" d="M143.578,213.362l-1.587,1.2c0.104,3.064,4.368,14.714,5.727,16.957
			c1.222,2.021,5.079,10.516,6.529,12.07c1.681,1.808,2.938,3.321,3.886,4.561c0.04-0.05,0.086-0.079,0.145-0.065
			c0.013,0.005,0.027,0.011,0.04,0.016c0.001-0.035-0.005-0.071,0.001-0.104c1.593-0.271,3.511,1.873,3.742,3.781
			c0.053,0.104,0.014,0.653,0.154,0.311c1.193-1.694-2.057-4.968-4.705-9.407c-0.991-1.665-1.897-3.494-2.451-5.469
			c-0.532-1.885-0.749-3.898-0.408-6.023c0.75-4.684,5.614,4.653,9.118,5.964c-0.463-0.415-0.854-1.015-1.173-1.535
			c-0.107-0.17-0.27-0.581-0.395-1.027c-0.114-0.273-0.033-1.753,0.443-1.5c-0.365-0.575-0.727-1.238-1.098-2.065
			c-1.196-2.665-3.316-7.645-5.898-9.275C148.869,217.47,147.854,211.729,143.578,213.362z"/>
		<path style="fill:#FF9E8A;" d="M162.019,233.547c0.004,0.302,0.079,0.686,0.184,1.045c0.125,0.446,0.287,0.857,0.395,1.027
			c0.319,0.521,0.71,1.12,1.173,1.535c0.346,0.308,0.927,0.441,0.927,0.059c-0.105-1.46-1.073-3.018-1.891-4.148l-0.005,0.113
			c-0.056-0.037-0.105-0.061-0.155-0.087C162.169,232.839,162.011,233.102,162.019,233.547z"/>
		<path style="fill:#FF9E8A;" d="M158.319,247.997c-0.006,0.032,0,0.068-0.001,0.104c-0.071,1.254,2.872,4.079,3.756,4.447
			c0,0,0.297,0.057,0.216-0.598C162.059,250.042,159.912,247.726,158.319,247.997z"/>
	</g>
	<g>
		<path style="fill:#4D220A;" d="M184.782,83.992c0-5.706,3.929-14.345,2.572-19.584c-0.82-3.166-1.749-6.457-4.149-8.64
			c0.781,1.305,1.373,2.672,2.445,3.767c-2.724-0.34-5.932-1.521-8.705-2.689c-3.996-1.684-4.526-1.96-6.986-5.257
			c1.014,3.208,1.729,3.602,2.049,4.961c-6.736-1.537-11.418-6.21-9.614-14.42c1.143-5.203-2.652-10.78,2.413-13.843
			c4.317-2.611,11.744-2.763,16.298-0.777c6.556,2.857,11.424,7.536,13.579,14.266c1.969,6.154,1.91,10.141,0.595,17.198
			c-1.07,5.74-1.815,13.227-6.567,18.65L184.782,83.992z"/>
		<path style="fill:#4D220A;" d="M164.807,29.448c1.411,2.643,0.369,10.61-0.561,13.527c-1.282,4.017-1.935,5.319-5.042,8.12
			c-2.625,1.783-12.656,3.421-14.236,9.652c0.026-0.99-1.656-2.415-1.714-3.39c-1.442,4.256-1.482,17.689,3.007,26.885
			c-11.635-8.938-11.901-23.533-12.281-26.905c-0.283-2.507-0.358-2.974-0.361-5.498c-0.007-6.529,1.335-9.719,4.934-15.147
			c3.245-4.895,10.338-9.598,16.006-10.533C161.158,25.068,164.807,29.448,164.807,29.448z"/>
		<path style="fill:#85573D;" d="M195.234,53.852c0.597-7.559-0.918-9.713-1.75-12.042c-5.006-9.632-10.419-11.524-13.524-12.842
			c-9.691-4.112-16.045,2.009-16.045,2.009c-2.857,3.089,0.64,11.876,3.008,15.283c-0.419-4.924-1.677-11.972,1.142-16.248
			c-1.154,4.218,1.094,8.52,3.15,11.973c-1.234-3.003-2.764-7.538-1.676-10.789c-0.102,2.09,3.56,5.902,4.623,7.538
			c-0.615-1.77-1.707-5.375-2.154-7.108c4.152,0.9,7.537,1.666,11.3,4.07c3.359,2.146,8.265,6.687,9.424,12.054
			c0-3.611-1.441-6.071-2.306-7.504C195.787,46.043,195.234,53.852,195.234,53.852z"/>
		<path style="fill:#85573D;" d="M167.395,36.224c-0.268,7.717,5.761,17.702,12.566,20.541c-3.566-2.375-5.97-4.442-7.989-8.28
			c-1.392-2.643-3.64-5.839-3.87-8.8L167.395,36.224z"/>
		<path style="fill:#85573D;" d="M179.112,33.565c7.375,3.47,12.165,15.844,12.044,23.17c0.62-7.785-1.808-18.282-7.36-21.568
			L179.112,33.565z"/>
		<path style="fill:#85573D;" d="M164.771,33.026c1.515,5.435-0.328,12.124-5.571,16.757c1.725-2.588,2.984-10.824,1.759-13.819
			c-0.478,2.342-3.529,5.148-5.611,6.116c1.282-1.495,2.859-4.199,2.463-7.421c-2.995-7.131-13.115,0.647-17.23,6.031
			c-3.802,4.973-5.451,17.284-2.712,26.59c-3.59-8.166-3.592-16.34-2.859-19.374c1.064-4.409,3.463-10.203,6.762-13.453
			c4.16-4.101,14.326-10.954,21.639-4.108C164.052,30.946,164.614,32.229,164.771,33.026L164.771,33.026z"/>
		<path style="fill:#85573D;" d="M160.59,38.728c0,7.425-3.658,10.846-6.729,13.103c-2.548,1.872-6.131,1.358-9.095,7.284
			c-0.44-3.404,3.443-5.848,5.777-7.284C159.217,46.495,160.009,42.482,160.59,38.728L160.59,38.728z"/>
		<path style="fill:#85573D;" d="M172.008,31.625c6.063,1.786,10.94,7.051,13.663,12.513c-0.547-4.458-4.932-10.937-9.207-12.513
			H172.008z"/>
	</g>
	<path style="fill:#482F1B;" d="M144.968,63.085c7.598-4.097,13.353-0.584,14.034-1.53c1.52-1.43-5.496-1.475-6.969-1.436
		c-2.699,0.071-5.896,1.219-7.268,2.986L144.968,63.085z"/>
	<path style="fill:#482F1B;" d="M184.157,59.784c-8.196-2.706-13.075,2.744-13.911,1.932c-1.746-1.142,4.979-3.397,6.436-3.617
		c2.67-0.401,6.019,0.17,7.678,1.67L184.157,59.784z"/>
	<path style="fill:#EFC39E;" d="M145.477,226.348c-2.541-9.542-19.73-30.245-25.711-39.949c-10.875-17.646-0.854-19.722,6.19-16.823
		c3.243,1.335,6.647,7.484,8.168,10.432c2.287,4.432,3.238,9.457,4.741,14.251c1.511,4.821,3.287,9.55,5.417,14.074
		c2.037,4.329,4.895,7.665,7.25,11.667L145.477,226.348z"/>
	
		<rect x="175.817" y="203.538" transform="matrix(0.9956 -0.0933 0.0933 0.9956 -18.7908 18.1241)" style="fill:#FFFFF5;" width="17.085" height="12.813"/>
	<path style="fill:#FDD089;" d="M186.159,207.519c0.147,0.71-0.384,1.421-1.186,1.587l0,0c-0.802,0.166-1.571-0.276-1.718-0.986
		l-1.478-7.132c-0.147-0.71,0.384-1.422,1.186-1.588l0,0c0.802-0.166,1.571,0.276,1.719,0.986L186.159,207.519z"/>
</g>
<g id="Layer_4">
	<path style="fill:#FFFFFF;" d="M275.477,117.637c-2.817-1.036-7.377,0.711-9.86,2.065c-2.601,1.417-5.93,4.441-6.459,7.421
		c0.26-2.22,3.853-4.423,5.663-5.572c2.465-1.564,5.186-1.965,7.69-3.28c-1.352,0.438-3.016,1.511-3.602,2.872
		c1.202-1.159,2.549-1.6,3.993-1.991c-2.352,3.741-3.345,7.537,0.852,13.34c-2.23-4.003-2.229-9.999-0.055-12.779
		c-0.788,3.228-0.477,6.326,2.073,7.942c-1.512-3.687-0.083-5.017,1.409-7.112c1.409-1.981,4.525-2.864,7.396-1.883
		c-0.919-0.4-3.058-2.442-4.151-2.299c6.397-2.973,11.694-1.326,20.805,4.021c-3.551-3.811-8.009-5.677-10.075-6.18
		c-1.829-0.445-4.019-0.976-5.982-0.769c-3.428,0.363-6.93,2.474-9.695,4.525V117.637z"/>
	<path style="fill:#FFFFFF;" d="M302.946,122.323c1.814,0.744,3.615,3.779,4.564,5.494c1.135,2.05,1.824,4.106,2.349,6.302
		c1.053,4.41,0.92,10.447-1.759,14.162c2.803-5.521,1.436-15.093-1.935-20.242c0.526,1.258,0.786,3.176,0.658,4.577
		c-0.148-3.318-2.072-7.721-3.877-10.455V122.323z"/>
	<path style="fill:#333333;" d="M330.927,334.176c0,4.861,1.772,8.254-3.069,8.254h-88.334c-4.842,0-4.569-1.381-4.569-6.242
		l-7.827-119.531c0-4.863,3.926-8.804,8.768-8.804h91.962c4.842,0,12.553,3.272,12.553,8.135L330.927,334.176z"/>
	<g>
		<g>
			<path style="fill:#666666;" d="M254.34,350.695c0,1.464-2.297,2.65-5.131,2.65h-29.26c-2.833,0-5.131-1.186-5.131-2.65l0,0
				c0-1.462,2.298-2.648,5.131-2.648h29.26C252.043,348.047,254.34,349.233,254.34,350.695L254.34,350.695z"/>
			<g>
				<rect x="215.765" y="396.164" style="fill:#666666;" width="5.478" height="1.723"/>
				<rect x="215.765" y="366.248" style="fill:#666666;" width="4.069" height="2.705"/>
				<rect x="215.765" y="302.537" style="fill:#666666;" width="5.478" height="1.722"/>
				<rect x="215.765" y="331.471" style="fill:#666666;" width="4.069" height="2.705"/>
			</g>
			<path d="M225.799,408.228c0,1.898-1.409,3.438-3.149,3.438l0,0c-1.739,0-3.148-1.539-3.148-3.438V293.167
				c0-1.899,1.409-3.438,3.148-3.438l0,0c1.74,0,3.149,1.538,3.149,3.438V408.228z"/>
			<path style="fill:#666666;" d="M225.466,339.354c0,1.699-1.261,3.075-2.816,3.075l0,0c-1.555,0-2.815-1.376-2.815-3.075v-45.222
				c0-1.698,1.261-3.076,2.815-3.076l0,0c1.556,0,2.816,1.378,2.816,3.076V339.354z"/>
			<path style="fill:#CCCCCC;" d="M225.466,319.758c0,1.699-1.261,3.076-2.816,3.076l0,0c-1.555,0-2.815-1.377-2.815-3.076v-22.55
				c0-1.699,1.261-3.075,2.815-3.075l0,0c1.556,0,2.816,1.376,2.816,3.075V319.758z"/>
			<path style="fill:#F2F2F2;" d="M224.059,312.302c0,0.851-0.63,1.538-1.409,1.538l0,0c-0.776,0-1.407-0.688-1.407-1.538v-14.359
				c0-0.849,0.631-1.537,1.407-1.537l0,0c0.779,0,1.409,0.689,1.409,1.537V312.302z"/>
			<path style="fill:#808080;" d="M216.712,400.41c0,0.571-0.425,1.035-0.947,1.035l0,0c-0.523,0-0.946-0.464-0.946-1.035v-99.428
				c0-0.57,0.423-1.033,0.946-1.033l0,0c0.523,0,0.947,0.463,0.947,1.033V400.41z"/>
		</g>
		<g>
			<path style="fill:#999999;" d="M267.834,392.274c0,2.319-1.881,4.2-4.2,4.2h-29.627c-2.319,0-4.2-1.881-4.2-4.2l0,0
				c0-2.319,1.881-4.199,4.2-4.199h29.627C265.953,388.075,267.834,389.955,267.834,392.274L267.834,392.274z"/>
		</g>
		<path d="M237.277,422.743c0,2.252-1.673,4.078-3.735,4.078l0,0c-2.063,0-3.735-1.826-3.735-4.078v-27.668
			c0-2.252,1.673-4.077,3.735-4.077l0,0c2.062,0,3.735,1.825,3.735,4.077V422.743z"/>
		<path style="fill:#666666;" d="M237.277,406.625c0,1.11-1.673,2.009-3.735,2.009l0,0c-2.063,0-3.735-0.898-3.735-2.009v-13.619
			c0-1.109,1.673-2.008,3.735-2.008l0,0c2.062,0,3.735,0.899,3.735,2.008V406.625z"/>
		<path style="fill:#B3B3B3;" d="M233.885,398.837c1.417,0,2.544,0.446,3.393,1.15v-4.866c0-0.497-1.673-0.9-3.735-0.9
			c-2.063,0-3.735,0.403-3.735,0.9v5.568C230.688,399.586,232.044,398.837,233.885,398.837z"/>
		<path style="fill:#4D4D4D;" d="M237.817,279.715c0,2.09-1.97,3.784-4.399,3.784h-16.253c-2.43,0-4.398-1.694-4.398-3.784l0,0
			c0-2.089,1.969-3.782,4.398-3.782h16.253C235.848,275.933,237.817,277.626,237.817,279.715L237.817,279.715z"/>
		<path style="fill:#CCCCCC;" d="M237.817,278.186c0,1.244-1.97,2.253-4.399,2.253h-16.253c-2.43,0-4.398-1.009-4.398-2.253l0,0
			c0-1.245,1.969-2.254,4.398-2.254h16.253C235.848,275.933,237.817,276.941,237.817,278.186L237.817,278.186z"/>
	</g>
	<g>
		<g>
			<path style="fill:#666666;" d="M310.129,350.695c0,1.464,2.296,2.65,5.131,2.65h29.26c2.833,0,5.13-1.186,5.13-2.65l0,0
				c0-1.462-2.297-2.648-5.13-2.648h-29.26C312.425,348.047,310.129,349.233,310.129,350.695L310.129,350.695z"/>
			<g>
				<rect x="343.227" y="396.164" style="fill:#666666;" width="5.477" height="1.723"/>
				<rect x="344.635" y="366.248" style="fill:#666666;" width="4.068" height="2.705"/>
				<rect x="343.227" y="302.537" style="fill:#666666;" width="5.477" height="1.722"/>
				<rect x="344.635" y="331.471" style="fill:#666666;" width="4.068" height="2.705"/>
			</g>
			<path d="M338.669,408.228c0,1.898,1.41,3.438,3.148,3.438l0,0c1.74,0,3.15-1.539,3.15-3.438V293.167
				c0-1.899-1.41-3.438-3.15-3.438l0,0c-1.738,0-3.148,1.538-3.148,3.438V408.228z"/>
			<path style="fill:#666666;" d="M339.002,339.354c0,1.699,1.262,3.075,2.815,3.075l0,0c1.556,0,2.817-1.376,2.817-3.075v-45.222
				c0-1.698-1.262-3.076-2.817-3.076l0,0c-1.554,0-2.815,1.378-2.815,3.076V339.354z"/>
			<path style="fill:#CCCCCC;" d="M339.002,319.758c0,1.699,1.262,3.076,2.815,3.076l0,0c1.556,0,2.817-1.377,2.817-3.076v-22.55
				c0-1.699-1.262-3.075-2.817-3.075l0,0c-1.554,0-2.815,1.376-2.815,3.075V319.758z"/>
			<path style="fill:#F2F2F2;" d="M340.41,312.302c0,0.851,0.63,1.538,1.407,1.538l0,0c0.778,0,1.409-0.688,1.409-1.538v-14.359
				c0-0.849-0.631-1.537-1.409-1.537l0,0c-0.777,0-1.407,0.689-1.407,1.537V312.302z"/>
			<path style="fill:#808080;" d="M347.757,400.41c0,0.571,0.425,1.035,0.946,1.035l0,0c0.523,0,0.946-0.464,0.946-1.035v-99.428
				c0-0.57-0.423-1.033-0.946-1.033l0,0c-0.522,0-0.946,0.463-0.946,1.033V400.41z"/>
		</g>
		<g>
			<path style="fill:#999999;" d="M296.635,392.274c0,2.319,1.881,4.2,4.2,4.2h29.627c2.319,0,4.2-1.881,4.2-4.2l0,0
				c0-2.319-1.881-4.199-4.2-4.199h-29.627C298.516,388.075,296.635,389.955,296.635,392.274L296.635,392.274z"/>
		</g>
		<path d="M327.191,422.743c0,2.252,1.673,4.078,3.735,4.078l0,0c2.063,0,3.735-1.826,3.735-4.078v-27.668
			c0-2.252-1.673-4.077-3.735-4.077l0,0c-2.063,0-3.735,1.825-3.735,4.077V422.743z"/>
		<path style="fill:#666666;" d="M327.191,406.625c0,1.11,1.673,2.009,3.735,2.009l0,0c2.063,0,3.735-0.898,3.735-2.009v-13.619
			c0-1.109-1.673-2.008-3.735-2.008l0,0c-2.063,0-3.735,0.899-3.735,2.008V406.625z"/>
		<path style="fill:#B3B3B3;" d="M330.583,398.837c-1.416,0-2.543,0.446-3.392,1.15v-4.866c0-0.497,1.673-0.9,3.735-0.9
			s3.735,0.403,3.735,0.9v5.568C333.781,399.586,332.425,398.837,330.583,398.837z"/>
		<path style="fill:#4D4D4D;" d="M326.649,279.715c0,2.09,1.972,3.784,4.401,3.784h16.252c2.43,0,4.399-1.694,4.399-3.784l0,0
			c0-2.089-1.97-3.782-4.399-3.782h-16.252C328.621,275.933,326.649,277.626,326.649,279.715L326.649,279.715z"/>
		<path style="fill:#CCCCCC;" d="M326.649,278.186c0,1.244,1.972,2.253,4.401,2.253h16.252c2.43,0,4.399-1.009,4.399-2.253l0,0
			c0-1.245-1.97-2.254-4.399-2.254h-16.252C328.621,275.933,326.649,276.941,326.649,278.186L326.649,278.186z"/>
		<path style="fill:#333333;" d="M336.624,342.759c0,1.889-1.532,3.422-3.422,3.422H230.549c-1.89,0-3.422-1.533-3.422-3.422l0,0
			c0-1.891,1.532-3.423,3.422-3.423h102.653C335.092,339.336,336.624,340.868,336.624,342.759L336.624,342.759z"/>
		<path style="fill:#333333;" d="M344.968,285.203c0,0.945-1.78,1.711-3.974,1.711H221.773c-2.194,0-3.974-0.766-3.974-1.711l0,0
			c0-0.945,1.779-1.711,3.974-1.711h119.221C343.188,283.492,344.968,284.258,344.968,285.203L344.968,285.203z"/>
	</g>
	<g>
		<path style="fill:#FED6AF;" d="M187.205,250.7c-0.105-0.418-0.121-1.313-0.146-1.703c-3.163-0.11-3.817-1.385-6.408-2.833
			c-2.709-1.516-7.809-3.711-11.037-3.97c-2.124-0.169-8.3-1.142-9.222,0.638c-0.007,0.645,0.526,0.558,0.701,0.686
			c-2.18-0.114-4.48-0.311-5.938-0.368c-0.277,3.627,5.689,3.023,8.483,3.325c-2.28,0.305-8.598-1.016-9.074,1.352
			c-0.372,2.893,19.301,0.288,19.301,5.216c-4.62,2.526-12.746-1.485-12.592,1.753c4.84,0.874,8.688,3.273,13.525,3.546
			c2.627,0.151,4.735-0.386,7.223-0.177c1.488,0.125,3.861-1.192,5.255-0.893C188.2,254.482,187.834,253.199,187.205,250.7z"/>
		<path style="fill:#7B3F04;" d="M181.411,245.834c-0.065,0.021,7.486,0.956,14.335-2.037c3.466-1.515,8.36-3.913,11.952-4.536
			c-0.496,2.107-4.767,6.321-4.838,8.512c-0.08,2.49,1.306,5.309,1.136,7.424l3.014,1.254c-3.587,1.7-11.322,0.348-14.929,1.412
			c-3.639,1.078-4.75,3.014-8.002,2.314c-0.479-0.184-0.414-1.001-0.414-1.001c-0.261-1.096-2.511-2.193-0.966-3.674
			c-1.057-0.309-1.288-1.688-1.177-2.253c-0.111-0.701,0.619-0.867,1.668-1.227C181.126,251.082,180.695,247.974,181.411,245.834z"
			/>
		<g>
			<path style="fill:#9F9E9B;" d="M262.655,168.286c-1.501-1.155-4.015-3.497-4.417-5.029c0.159,0.465,0.204,0.851,0.441,1.332
				c-1.471-1.898-2.361-4.246-3.635-6.119c-0.095,0.964-0.055,2.018,0.384,2.846c-3.764-3.53-4.792-9.206-5.559-13.828
				c-0.643-3.871,0.572-9.903,2.632-13.019c-0.672,0.403-1.196,1.003-1.347,1.714c-0.239-2.22,1.143-6.583,2.077-8.924
				c1.021-2.57,3.374-5.458,5.503-7.237c4.14-3.461,10.066-6.446,15.295-5.506c-1.026-0.568-2.148-1.403-3.281-1.665
				c1.622-0.124,5.409,0.476,6.563,1.609c-0.787-1.586,1.31-2.541,2.477-3.143c-0.548,0.812-0.892,1.743-0.814,2.722
				c6.625-4.325,13.668-1.591,19.389,1.367c2.584,1.337,12.771,4.722,15.315,21.362c0.124,0.826-5.804-5.909-5.358-5.113
				c-0.02-0.349,0.033,0.349,0,0c2.832,2.853,2.945,4.307,3.632,6.206c0.96,2.659,2.378,9.247,1.336,14.21
				c-0.053-0.293-0.586-1.97-0.674-2.214c0.132,4.523-1.826,8.615-4.789,11.637c-2.133,2.177-5.027,4.43-6.034,5.598
				c-1.235,1.431-3.197,2.411-4.686,3.599c-2.352,1.881-0.759,1.107-3.598,1.841c-2.317,0.6-4.192,1.899-6.418,2.686
				c-2.011,0.711-3.98,0.668-6.089,0.713c-3.965,0.083-8.097,0.466-11.61-1.713c-1.982-1.23-3.006-3.318-4.513-4.847
				c-0.784-0.793-1.993-1.869-2.639-2.253L262.655,168.286z"/>
			<path style="fill:#EFC39E;" d="M262.129,151.487c0.255,4.027,0.667,8.807-1.299,8.655c-1.961-0.153-6.738-6.828-6.993-10.854
				c-0.257-4.026,2.31-5.52,4.271-5.368C260.074,144.073,261.874,147.46,262.129,151.487z"/>
			<path style="fill:#EFC39E;" d="M300.688,152.278c-0.097,4.487-0.325,9.822,1.85,9.56c2.175-0.263,7.17-7.908,7.267-12.396
				c0.093-4.487-2.83-6.027-5.008-5.765C302.622,143.939,300.78,147.789,300.688,152.278z"/>
			<path style="fill:#FED6AF;" d="M284.576,219.783c1.755-0.92,7.4-31.541,8.918-32.715c-0.362-0.111-0.725-0.221-1.095-0.33
				l0.405-20.139l-19.893,1.496l0.452,19.832c-0.145,0.063-0.288,0.125-0.43,0.188C275.844,194.541,279.624,222.654,284.576,219.783
				z"/>
			<path style="fill:#D09458;" d="M268.555,186.71c-17.152,0-28.991,7.796-40.211,25.164c-7.102,10.994-24.678,19.574-29.556,25.339
				c-5.015,5.925-5.262,7.208-2.676,13.487c27.012-8.799,43.716-32.506,53.191-53.354c0,12.822-0.957,24.682,0.896,37.464
				C257.495,230.115,263.715,220.618,268.555,186.71z"/>
			<path style="fill:#AB7344;" d="M246.899,196.102c-6.055,35.278-36.17,37.947-50.787,54.599c2.125,5.161,3.643,8.011,5.857,8.202
				c12.85,1.113,25.716-10.429,27.838-12.278c5.746-5.013,13.585-13.631,17.104-9.411c1.202,1.441,0.207-1.89,1.215,1.431
				C248.126,227.214,251.402,211.253,246.899,196.102z"/>
			<path style="fill:#AB7344;" d="M308.704,272.855c1.938,8.229,5.74,15.295,9.945,22.204c-3.856-13.793-5.982-33.936-3.486-44.168
				c4.675-19.162,4.675-30.903,1.49-36.677c-6.688,19.539-26.322,56.131-14.996,73.742
				C302.663,281.916,305.685,277.889,308.704,272.855z"/>
			<path style="fill:#AB7344;" d="M258.364,283.93c0-20.945-5.842-50.836-11.684-56.716c0.4,10.852,2.947,25.747,4.627,40.816
				c0.208,1.872-1.438,14.517-3.898,27.685c-0.034,0.185-0.07,0.37-0.105,0.553c3.331-5.021,6.23-10.331,8.041-16.366
				C256.353,280.909,258.364,281.916,258.364,283.93z"/>
			<path style="fill:#AB7344;" d="M270.179,256.566c0,4.059-6.087,4.059-6.087,8.116c-8.246-2.748-9.045-14.598-12.859-22.1
				c2.823,13.732,5.931,27.317,7.266,41.347c0-2.014-2.013-3.02-3.019-4.027c-1.802,6.005-4.683,11.291-7.991,16.289
				c1.178,0.203,2.391,0.452,3.683,0.66c4.867,0.784,10.201,0.54,15.112,0.363c10.389-0.371,20.611-2.084,30.954-2.959
				c6.733-0.569,13.482-0.972,20.228-1.4c-3.67-6.217-6.895-12.643-8.627-20c-3.02,5.033-6.041,9.06-7.047,15.102
				c-6.449-11.506-3.417-23.115,1.634-34.572C293.529,260.063,282.554,263.441,270.179,256.566z"/>
			<path style="fill:#D09458;" d="M317.445,206.616c0.204-1.608,0.508-9.876,1.338-11.303c-3.135-6.466-8.178-7.451-15.562-8.218
				c-6.266,5.408-14.197,23.949-19.194,30.943c-7.052-9.669-15.465-22.138-22.912-31.49c-4.85,1.335-12.99,4.269-14.435,7.746
				c1.411,10.794,1.561,21.894,2.059,35.406c0.761,4.32,1.614,8.608,2.493,12.883c3.814,7.502,4.613,19.352,12.859,22.1
				c0-4.058,6.087-4.058,6.087-8.116c12.375,6.875,23.351,3.496,33.246-3.182c3.854-8.746,8.886-17.405,11.78-25.863
				C315.758,221.529,316.358,215.18,317.445,206.616z"/>
			<path style="fill:#7B3F04;" d="M313.927,188.708c-6.077-4.872-17.903-8.464-21.291-9.172c-2.14,12.613-6.681,33.93-8.608,38.503
				C288.845,211.155,307.663,194.115,313.927,188.708z"/>
			<path style="fill:#7B3F04;" d="M284.027,218.038C284.264,217.643,283.782,218.427,284.027,218.038
				c-2.849-7.145-10.248-33.631-10.853-38.503c-3.592,1.729-15.387,5.077-21.771,7.174
				C258.849,196.063,274.394,206.941,284.027,218.038z"/>
			<path style="fill:#AB7344;" d="M330.061,260.726c4.601-14.102-15.131,14.854-30.501,10.363c1.293,3.271,2.209,7.883,2.209,7.883
				c35.795,4.468,38.127-14.19,34.854-35.783c-0.335,8.631-1.893,16.994-8.386,23.92
				C329.149,265.284,330.061,263.461,330.061,260.726z"/>
			<path style="fill:#D09458;" d="M313.594,191.122c-0.83,1.426,3.544,12.237,3.099,13.795c-0.331,1.203-0.025,4.083-0.329,5.252
				c0.022,4.196-1.575,17.246-1.2,21.304c3.719,40.237-16.598,22.082-18.489,36.603c1.023-0.709,2.037,0.862,2.887,3.013
				c18.99,4.49,31.366-20.389,30.501-10.363c0,2.735-0.912,4.559-1.823,6.383c6.492-6.926,8.051-15.289,8.386-23.92
				c-1.564-10.323-4.408-21.316-5.492-30.778C329.34,196.78,320.861,191.122,313.594,191.122z"/>
			
				<linearGradient id="SVGID_00000098937417107193199610000010670367492263196814_" gradientUnits="userSpaceOnUse" x1="465.3232" y1="200.1271" x2="465.3232" y2="174.8311" gradientTransform="matrix(0.9998 -0.0212 0.0212 0.9998 -186.2433 7.3042)">
				<stop  offset="0.3818" style="stop-color:#FFFFFF"/>
				<stop  offset="0.4905" style="stop-color:#FCFAF9"/>
				<stop  offset="0.6347" style="stop-color:#F4EBE8"/>
				<stop  offset="0.7987" style="stop-color:#E6D3CD"/>
				<stop  offset="0.9762" style="stop-color:#D4B2A7"/>
				<stop  offset="1" style="stop-color:#D1ADA1"/>
			</linearGradient>
			<polygon style="fill:url(#SVGID_00000098937417107193199610000010670367492263196814_);" points="291.706,197.347 
				275.289,196.196 272.726,174.074 292.695,172.023 			"/>
			<path style="fill:#FED6AF;" d="M282.792,116.61l-4.061,0.225c-12.934,0.718-22.077,10.702-21.62,26.078
				c0.207,6.951,0.6,21.959,8.139,28.175c9.176,7.562,14.927,8.193,17.522,8.157c2.116,0.017,9.903-1.303,18.133-10.051
				c4.508-4.794,6.289-21.933,5.928-28.45C305.991,125.596,295.725,115.892,282.792,116.61z"/>
			<g>
				<path style="fill:#817876;" d="M313.927,382.716c1.153-0.966,3.186-3.477,4.624-4.42c-0.034-0.759-0.144-1.862-0.298-3.188
					c-2.096-1.146-4.23-2.237-6.407-3.228C312.64,375.218,313.362,378.756,313.927,382.716z"/>
				<path style="fill:#6F6664;" d="M307.921,356.959c1.278,5.018,2.689,9.727,3.925,14.921c2.177,0.991,4.311,2.082,6.407,3.228
					c-0.474-4.08-1.38-10.278-1.903-15.14C313.666,358.76,310.81,357.841,307.921,356.959z"/>
				<path style="fill:#817876;" d="M315.952,354.468l0.598-30.728c0.438-4.611,1.063-12.663,1.5-22.566
					c-2.195-4.028-4.9-7.665-8.308-10.629c-0.343-0.299-0.714-0.595-1.103-0.885c1.313,14.34-5.099,19.744-5.692,22.355
					c-1.568,5.968,1.366,24.492,2.125,30.414c0.702,5.459,1.725,10.114,2.85,14.529c2.889,0.882,5.745,1.801,8.429,3.01
					C316.11,357.744,315.951,355.799,315.952,354.468z"/>
				<path style="fill:#574D49;" d="M296.453,385.539c10.689,5.207,14.069,0.026,17.474-2.823c-0.022-3.733-0.11-7.03-0.249-9.977
					c-6.334-3.073-13.018-5.374-20.049-5.689C295.129,376.341,296.287,383.384,296.453,385.539z"/>
				<path style="fill:#574D49;" d="M310.644,291.368c-0.296-0.278-0.593-0.556-0.901-0.823c-5.031-4.377-15.561-8.3-19.536-0.557
					c-1.655,3.226-3.541,2.691-4.099,6.28c-1.658,7.864,1.517,32.09,4.778,53.422c6.193,4.689,14.098,6.136,21.334,8.654
					C308.61,338.248,301.287,350.702,310.644,291.368z"/>
				<path style="fill:#453B37;" d="M290.886,349.69c0.945,6.188,1.898,12.129,2.743,17.359c7.031,0.315,13.715,2.616,20.049,5.689
					c-0.292-6.217-0.816-10.822-1.458-14.395C304.983,355.826,297.079,354.379,290.886,349.69z"/>
				<path style="fill:#574D49;" d="M255.976,304.248c-0.235-0.183-0.463-0.338-0.688-0.486c0.053,0.689,0.105,1.364,0.156,2.067
					c0.398,6.784,0.097,82.056,0.083,82.314c5.148,1.808,10.552,4.322,17.012-2.569c-0.88-10.449,1.57-31.918,3.737-45.872
					C267.679,328.776,267.626,311.737,255.976,304.248z"/>
				<path style="fill:#423834;" d="M275.726,300.678c-1.512-5.047-4.385-9.309-9.923-11.214c-3.768-1.296-8.034-1.268-11.463,0.434
					c0.229,4.516,0.583,9.035,0.948,13.864c0.225,0.148,0.452,0.304,0.688,0.486c11.65,7.489,11.703,24.528,20.301,35.454
					c0.192-1.232,0.382-2.412,0.566-3.514C280.988,311.421,275.434,303.577,275.726,300.678z"/>
				<path style="fill:#817876;" d="M246.911,310.294c0.146,27.98,2.44,54.186,2.146,75.151c0.765,0.323,3.181,1.922,6.471,3.077
					c0.014-0.258,0.026-0.517,0.038-0.778c0.586-10.954,8.774-62.635,1.87-79.262c-0.489-1.177-0.9-2.569-1.244-4.084
					c-0.074-0.048-0.142-0.103-0.216-0.15C250.935,300.328,248.37,304.45,246.911,310.294z"/>
				<path style="fill:#6C6361;" d="M248.051,295.33c-1.161,2.496-0.619,5.59-1.136,8.416c-0.018,2.193-0.016,4.374-0.004,6.548
					c1.459-5.844,4.024-9.966,9.064-6.046c0.074,0.048,0.142,0.103,0.216,0.15c-1.023-4.497-1.453-10.069-1.57-14.25
					C252.342,291.205,249.258,292.734,248.051,295.33z"/>
			</g>
			<g>
				<path style="fill:#A6636B;" d="M279.063,162.872c-1.54-0.618,0.657-1.663,1.319-0.129c-0.273,0.447-0.78,0.339-1.215,0.228
					L279.063,162.872z"/>
				<path style="fill:#A6636B;" d="M282.288,162.803c0.386-2.334,3.34-0.028,0.306,0.094L282.288,162.803z"/>
			</g>
			<g>
				<path style="fill:#4D2B3D;" d="M275.779,167.821c-0.576-0.122-1.109-0.261-1.593-0.418c0.016,0.009,0.031,0.02,0.046,0.029
					c0.354,0.204,0.702,0.399,1.054,0.578c0.688,0.352,1.374,0.654,2.071,0.892c-0.181-0.289-0.384-0.579-0.515-0.89
					C276.477,167.955,276.117,167.893,275.779,167.821z"/>
				<path style="fill:#4D2B3D;" d="M288.743,167.296c-0.302,0.095-0.617,0.186-0.947,0.27c-0.453,0.115-0.934,0.219-1.432,0.31
					c-0.102,0.253-0.181,0.513-0.257,0.778c0.638-0.259,1.271-0.563,1.897-0.919C288.253,167.598,288.496,167.448,288.743,167.296z"
					/>
				<path style="fill:#FFFFFF;" d="M281.803,168.325c-1.726,0.037-3.445-0.075-4.96-0.313c0.131,0.311,0.334,0.601,0.515,0.89
					c0.013,0.004,0.026,0.009,0.041,0.013c1.413,0.484,2.849,0.72,4.28,0.686c1.434-0.032,2.859-0.331,4.253-0.874
					c0.059-0.023,0.117-0.05,0.176-0.073c0.076-0.265,0.155-0.525,0.257-0.778C284.954,168.133,283.383,168.29,281.803,168.325z"/>
				<path style="fill:#C48289;" d="M291.583,165.862c-0.419,0.102-0.822,0.205-1.223,0.303c-0.402,0.096-0.802,0.188-1.204,0.274
					c-0.802,0.173-1.611,0.321-2.425,0.447c-1.628,0.247-3.288,0.395-4.954,0.431c-1.668,0.037-3.329-0.04-4.968-0.218
					c-0.818-0.088-1.628-0.206-2.437-0.343c-0.405-0.069-0.808-0.145-1.213-0.226c-0.407-0.079-0.812-0.165-1.233-0.251
					c0.329,0.288,0.794,0.555,1.363,0.796c0.673,1.431,1.823,2.658,3.242,3.542c1.513,0.942,3.358,1.447,5.202,1.404
					c1.842-0.036,3.663-0.622,5.136-1.624c1.333-0.908,2.397-2.126,3.022-3.52C290.622,166.569,291.201,166.227,291.583,165.862z
					 M288.004,167.735c-0.686,0.389-1.376,0.719-2.072,0.992c-1.393,0.542-2.819,0.841-4.253,0.874
					c-1.432,0.035-2.867-0.201-4.28-0.686c-0.712-0.238-1.412-0.545-2.112-0.905c-0.352-0.178-0.699-0.374-1.054-0.578
					c-0.015-0.009-0.03-0.02-0.046-0.029c0.483,0.156,1.017,0.296,1.593,0.418c1.746,0.368,3.882,0.55,6.023,0.503
					c2.142-0.044,4.266-0.317,5.993-0.759c0.33-0.085,0.646-0.175,0.947-0.27C288.496,167.448,288.253,167.598,288.004,167.735z"/>
			</g>
			<g>
				<path style="fill:#FFFFFF;" d="M275.606,152.871c0,0-2.302,0.602-5.309,1.198c-3.007,0.596-5.728-0.376-6.159-2.553
					c-0.43-2.175,1.777-3.815,4.786-4.411C271.931,146.509,274.804,150.702,275.606,152.871z"/>
				<path style="fill:#007D75;" d="M272.848,150.225c0.35,1.773-0.789,3.495-2.551,3.844c-1.76,0.349-3.471-0.807-3.826-2.581
					c-0.352-1.774,0.792-3.494,2.552-3.843C270.784,147.296,272.496,148.45,272.848,150.225z"/>
				<path d="M271.483,150.495c0.206,1.034-0.47,2.04-1.501,2.245c-1.037,0.205-2.042-0.468-2.246-1.502
					c-0.207-1.035,0.468-2.041,1.502-2.246C270.274,148.787,271.277,149.46,271.483,150.495z"/>
				<path style="fill:#FFFFFF;" d="M268.571,151.073c0.088,0.46-0.211,0.907-0.669,0.997c-0.462,0.092-0.909-0.208-0.999-0.668
					c-0.091-0.459,0.208-0.906,0.669-0.997C268.033,150.313,268.477,150.613,268.571,151.073z"/>
				<path style="fill:#B87E63;" d="M263.978,150.705c0.01-0.325,0.123-0.651,0.279-0.946c0.155-0.299,0.362-0.567,0.587-0.819
					c0.46-0.496,1.02-0.894,1.627-1.197c1.214-0.604,2.653-0.827,4.025-0.54c0.684,0.143,1.342,0.409,1.926,0.777
					c0.587,0.367,1.103,0.831,1.534,1.351c0.859,1.043,1.398,2.275,1.65,3.54C272.422,147.98,264.255,150.121,263.978,150.705z"/>
			</g>
			<g>
				<path style="fill:#FFFFFF;" d="M287.565,152.617c0,0,2.326,0.503,5.358,0.972c3.029,0.467,5.703-0.619,6.042-2.812
					c0.339-2.192-1.938-3.736-4.967-4.205C290.97,146.105,288.278,150.417,287.565,152.617z"/>
				<path style="fill:#007D75;" d="M290.21,149.856c-0.276,1.787,0.938,3.458,2.714,3.733c1.772,0.274,3.435-0.953,3.71-2.741
					c0.277-1.788-0.938-3.457-2.712-3.732C292.147,146.843,290.486,148.069,290.21,149.856z"/>
				<path d="M291.585,150.069c-0.16,1.042,0.552,2.019,1.597,2.179c1.041,0.162,2.019-0.554,2.182-1.595
					c0.16-1.043-0.556-2.019-1.601-2.18C292.722,148.311,291.748,149.025,291.585,150.069z"/>
				<path style="fill:#FFFFFF;" d="M290.828,150.148c-0.071,0.464,0.248,0.897,0.712,0.969c0.462,0.072,0.895-0.246,0.966-0.709
					c0.073-0.464-0.247-0.898-0.71-0.969C291.335,149.366,290.899,149.685,290.828,150.148z"/>
				<path style="fill:#B87E63;" d="M299.095,149.961c-0.025-0.325-0.15-0.645-0.319-0.936c-0.167-0.291-0.385-0.55-0.621-0.791
					c-0.48-0.477-1.058-0.85-1.676-1.128c-1.238-0.552-2.688-0.714-4.044-0.369c-0.678,0.171-1.325,0.465-1.895,0.857
					c-0.571,0.393-1.067,0.878-1.475,1.415c-0.813,1.078-1.301,2.333-1.5,3.607C290.738,146.452,298.792,149.389,299.095,149.961z"
					/>
			</g>
			<path style="fill:#C48289;" d="M291.131,165.912c0.142-0.46,0.17-0.961,0.097-1.45c0.465,0.872,0.875,1.811,1.166,2.736
				c-0.362-0.449-0.814-0.732-1.368-0.759C290.999,166.131,291.06,166.22,291.131,165.912L291.131,165.912z"/>
			<path style="fill:#C48289;" d="M272.777,166.71c-0.659-0.252-1.278,0.27-1.484,0.935c-0.034-0.759,0.208-2.028,0.64-2.638
				c0.067,0.688,0.478,1.252,0.846,1.839L272.777,166.71z"/>
			<path style="fill:#C48289;" d="M264.453,152.734c-0.75-0.589-1.869-0.751-2.832-0.622c0.375,0.008,1.861-0.138,1.802-0.718
				c-0.038-0.381-2.01-0.778-2.273-0.874c0.615,0.002,1.73-0.107,2.313,0.197c0.565,0.297,0.304,0.487,0.676,0.798L264.453,152.734z
				"/>
			<path style="fill:#C48289;" d="M298.854,151.46c-0.053-0.21,0.018-1.153,0.12-1.616c0.741,0.024,1.461,0.08,2.255,0.069
				c-0.643,0.091-1.268,0.464-1.732,0.846c0.505,0.552,0.837,0.289,1.507,0.724c-0.774,0.112-1.268,0.099-1.739,0.105
				L298.854,151.46z"/>
			<path style="fill:#C4A782;" d="M285.592,161.403c0.896,0.455,1.677,1.187,2.61,1.563c-0.814-1.05-2.218-1.883-2.746-3.047
				c-0.063,0.514,0.099,1.035,0.272,1.48L285.592,161.403z"/>
			<path style="fill:#C4A782;" d="M275.906,160.247c-0.098,1.214-1.002,2.402-1.646,3.424c0.918-0.752,2.121-2.379,2.057-3.297
				L275.906,160.247z"/>
			<g>
				<path style="opacity:0.36;fill:#FFFFFF;" d="M300.739,149.535l-9.82-0.947c-0.006,0.001-0.012,0.002-0.017,0.002
					c-0.028,0.012-0.052,0.024-0.081,0.034c-0.316,0.095-0.622,0.169-0.93,0.224c-1.604,0.451-3.133,1.088-4.726,1.689l-0.028,3.571
					c-0.133,1.11,1.854,1.444,2.876,1.544c14.88,1.459,14.338-3.926,14.338-3.926C302.485,150.615,301.763,149.635,300.739,149.535z
					"/>
				<path d="M284.788,151.729l-0.807,0.09c-0.026-1.257,0.338-1.618,1.131-2.121c3.306-2.096,12.405-1.441,19.959,0.137l-0.24,0.936
					c-7.089-1.482-16.098-2.203-19.121-0.286C285.162,150.833,284.861,151.24,284.788,151.729z"/>
			</g>
			<g>
				<path style="opacity:0.37;fill:#FFFFFF;" d="M261.747,150.361l9.77-1.362c0.007,0.001,0.013,0.001,0.02,0.002
					c0.029,0.01,0.053,0.022,0.083,0.03c0.318,0.081,0.627,0.143,0.936,0.184c1.621,0.383,3.18,0.955,4.794,1.487l0.181,3.567
					c0.182,1.104-1.792,1.52-2.809,1.664c-14.805,2.088-14.49-3.316-14.49-3.316C260.052,151.514,260.729,150.504,261.747,150.361z"
					/>
				<path d="M277.777,151.878l0.724,0.057c0.424-1.267-0.318-1.604-1.135-2.072c-3.39-1.955-12.454-0.915-19.931,0.982l0.278,0.925
					c7.017-1.781,15.987-2.883,19.094-1.096C277.365,150.998,277.685,151.391,277.777,151.878z"/>
			</g>
			<path style="fill:#D4D3CF;" d="M271.774,117.615c-0.485-2.678-8.41,0.735-10.19,2.222c-2.614,2.184-5.592,6.074-6.626,9.361
				c-1.784,5.667-1.318,12.963,0.945,18.702c1.209,3.067,2.695,6.794,5.109,9.032c-2.078-4.04-3.082-8.165-3.18-12.781
				c0.006,2.058,1.147,4.345,2.638,5.69c-1.503-2.892-2.381-8.984-1.003-11.69c-0.008,2.132,0.431,4.532,2.249,5.829
				c-3.101-5.295,0.646-7.788,4.102-11.379c2.975-3.093,7.464-11.486,6.385-15.854c-0.063,0.173-1.123,2.22-1.185,2.377
				L271.774,117.615z"/>
			<path style="fill:#D4D3CF;" d="M269.846,116.573c-6.198,3.461-3.994,13.25-2.287,17.514c1.862,4.657,5.785,9.616,10.533,12.146
				c-2.609-2.152-3.59-6.202-5.048-9.058c0.647,2.26,2.759,4.089,4.611,5.389c-1.608-2.086-3.273-5.186-4.072-7.958
				c0.73,3.876,5.553,5.543,8.071,7.383c-1.397-1.437-2.257-3.46-2.94-5.336c1.132,2.969,4.373,3.925,7.172,4.64
				c2.958,0.755,7.578,2.021,10.656,2.876c3.429,0.95,3.406,0.897,5.31,3.882c1.825,2.858,1.943,6.572,1.828,10.157
				c-0.021,0.648,0.017-0.67,0,0c0.709-3.104,2.324-9.816,1.293-12.91c0.171,0.364,1.55,3.954,1.028,6.928l0,0
				c5.283-6.813,6.58-14.12,4.32-22.021c-2.628-9.186-16.641-19.182-28.333-15.623c-1.315,0.4-2.566,0.925-3.615,1.815
				c0.389-0.671,0.751-1.349,1.188-1.978c-1.263,0.3-2.964,0.799-3.759,1.832c-1.773-1.735-6.77-1.902-8.916,0.321H269.846z"/>
			<path style="fill:#EDEBE9;" d="M271.917,124.589c-0.894,3.943,2.905,11.093,6.184,13.321c-1.794-2.556-3.031-5.193-3.732-8.215
				c1.374,3.125,5.401,6.314,8.218,8.188c3.088,2.055,6.965,2.205,10.05,3.868c-6.537-2.941-13.001-6.613-17.071-12.664
				c0.934,1.239,2.745,2.033,4.274,2.398c-5.596-2.556-4.745-13.557,1.867-13.805c-2.052-1.048-4.213-0.456-6.201,0.557
				c-3.079,1.571-3.895,3.6-3.966,6.948L271.917,124.589z"/>
			<g>
				<path style="fill:#EDEBE9;" d="M255.186,139.444c0.066-2.161-0.146-4.996,0.472-7.092c0.306-1.037,1.778-7.9,8.462-11.294
					c2.339-1.435,5.169-2.237,7.468-2.188c-0.194-0.123,0.303-0.286,0.02-0.392c-0.04-0.063-1.014,0.015-1.947-0.338
					c1.184-0.41,3.309-0.77,4.635-0.891c-0.283-0.284-1.516-1.135-1.928-1.203c0.912,0.026,1.387-0.331,3.503,0.625
					c1.049,0.474,2.292-1.306,3.426-1.619c-0.556,0.547-1.039,1.195-1.239,1.94c4.774-2.877,14.26-2.896,19.221,2.087
					c0,0-6.36-4.273-14.336-2.116c1.137,0.623,2.532,1.133,3.678,1.835c-2.63,0.071-5.097-1.134-7.565,0.299
					c-2.491,1.446-3.22,3.874-3.978,6.386c-1.053-1.121-0.962-2.515-1.107-4.055c-1.018,0.928-2.527,0.707-3.418,1.463
					c-0.742,0.633-1.148,2.76-1.293,3.499c-0.144-1.516-0.106-3.095,0.219-4.472c-1.456,0.675-3.08,1.607-4.036,2.933
					c0.558-0.972,1.334-1.864,1.699-2.888c-2.35,0.628-4.959,3.052-6.383,5.016c-0.918,1.688-1.545,3.534-1.998,5.468
					c-0.018-1.487-0.124-3.117,0.361-4.511l-0.255,0.321c-1.575,2.975-2.644,6.174-2.919,9.551
					c-0.234,2.851,0.585,5.124,0.748,7.811C256.091,143.501,255.117,141.734,255.186,139.444z"/>
				<path style="fill:#EDEBE9;" d="M272.203,116.745c0.342-0.059,0.689-0.057,1.019-0.002
					C272.865,116.731,272.521,116.728,272.203,116.745z"/>
			</g>
			<path style="fill:#88827C;" d="M261.26,146.07c-0.179-0.082,8.01-6.488,12.493-0.188c-0.729-0.935-5.371-2.069-7.236-1.584
				c-1.37,0.356-2.724,0.9-5.535,2.101L261.26,146.07z"/>
			<path style="fill:#999999;" d="M285.258,153.251c0.019,0.865-0.274,1.572-0.649,1.579c-0.373,0.008-0.695-0.686-0.714-1.55
				c-0.018-0.864,0.273-1.571,0.647-1.579C284.919,151.693,285.238,152.388,285.258,153.251z"/>
			<path style="fill:#999999;" d="M277.182,153.423c0.019,0.865,0.337,1.558,0.713,1.55c0.375-0.008,0.666-0.714,0.646-1.578
				c-0.018-0.864-0.337-1.559-0.714-1.55C277.452,151.852,277.163,152.559,277.182,153.423z"/>
			<g>
				<path d="M278.332,153.287c-0.046-0.158,0.172-1.183,0.169-1.352c-0.027-1.256,1.204-2.345,2.688-2.376
					c1.487-0.032,2.766,1.002,2.792,2.26c0.003,0.169,0.158,1.185,0.12,1.346l0.635-0.867c0.033-0.16,0.048-0.327,0.044-0.496
					c-0.031-1.525-1.611-2.688-3.598-2.646c-1.986,0.042-3.515,1.27-3.481,2.796c0.002,0.149,0.02,0.295,0.054,0.438
					C277.755,152.392,278.332,153.287,278.332,153.287z"/>
			</g>
			<path style="fill:#AB7344;" d="M248.272,219.987c2.549,9.156,10.395,17.447,19.095,18.027c6.046,0.404,11.473-2.263,17.505-1.261
				c6.363,1.061,12.804,1.923,20.346-0.016c12.152-3.123,12.65-24.767,11.973-37.373c4.954,32.015-1.909,47.259-10.481,47.016
				c-3.732-0.105-10.253-1.57-13.831-2.896c-11.011-4.081-22.567,3.024-29.316,2.115c-5.994-0.807-15.289-4.575-15.289-13.076
				V219.987z"/>
			<path style="fill:#FBFBFB;" d="M276.571,155.253c-1.248,0.449-2.526,0.815-3.834,1.07c-0.652,0.133-1.313,0.223-1.978,0.295
				c-0.665,0.065-1.335,0.093-2.004,0.091c-0.67-0.013-1.341-0.06-2.007-0.154c-0.665-0.102-1.326-0.235-1.967-0.436
				c-1.284-0.388-2.505-0.992-3.552-1.809c1.177,0.614,2.403,1.078,3.671,1.375c0.633,0.143,1.27,0.262,1.916,0.329
				c0.646,0.074,1.295,0.116,1.944,0.119c0.651,0.014,1.303-0.012,1.952-0.058c0.651-0.039,1.302-0.115,1.95-0.194
				C273.968,155.713,275.263,155.471,276.571,155.253z"/>
			<path style="fill:#FBFBFB;" d="M285.816,155.058c1.264,0.395,2.557,0.707,3.876,0.906c0.655,0.105,1.321,0.167,1.987,0.21
				c0.666,0.037,1.337,0.037,2.007,0.006c0.671-0.042,1.337-0.117,1.999-0.238c0.658-0.13,1.315-0.292,1.947-0.519
				c1.266-0.442,2.459-1.098,3.471-1.958c-1.148,0.663-2.356,1.18-3.608,1.53c-0.627,0.17-1.26,0.316-1.903,0.41
				c-0.64,0.102-1.287,0.17-1.936,0.201c-0.649,0.041-1.299,0.043-1.952,0.025c-0.653-0.011-1.307-0.06-1.96-0.111
				C288.438,155.407,287.133,155.219,285.816,155.058z"/>
		</g>
		<path style="fill:#FED6AF;" d="M290.331,271.432c-2.146-0.868-4.288-1.081-6.428-1.968c-1.96-0.813-3.324-2.108-5.364-3.025
			c-3.755-1.691-7.657-1.185-11.668-2.368c-1.537,3.454,8.697,4.108,8.428,6.552c-3.615,4.188-15.469-5.907-16.399-3.303
			c-0.635,2.204,4.673,3.593,6.263,4.763c-2.232-0.856-6.426-3.413-7.417-1.137c-0.288,0.664,6.7,4.116,9.211,5.017
			c-0.574-0.126-3.379-1.613-3.885-1.707c0.109,0.027,0.545,0.458,0.685,0.328c-1.077-0.685-2.865-1.179-3.404-0.527
			c-0.567,2.436,5.823,3.386,7.511,4.039c2.932,1.136,7.299,1.229,9.976,1.019c3.108-0.241,4.579-0.589,7.625-0.79
			c2.936-0.189,5.617,0.206,5.746-3.684L290.331,271.432z"/>
	</g>
	<path style="fill:#7B3F04;" d="M283.606,268.557c1.934,3.573,1.934,3.573,2.313,5.96c0.054,0.336,0.301,4.273,0.023,5.365
		c4.924-0.974,10.596-0.646,15.827-0.91c0.577-3.561-0.243-8.488-1.391-11.736c-3.052,1.4-6.715,0.759-9.959,0.434
		c-1.803-0.181-8.59-1.813-6.814,0.432V268.557z"/>
	<path style="fill:#788C4F;" d="M265.106,285.987c-2.188-3.281-6.145-4.778-10.282-4.682c-2.491,4.372-3.725,9.273-3.951,14.258
		c3.501-2.013,8.732-1.569,11.712,3.984c0.072,0.135,0.146,0.262,0.216,0.401c1.388,2.807,2.162,9.983,4.749,18.713
		c3.118-6.535,5.32-13.712,6.484-21.085C271.224,293.541,268.291,289.627,265.106,285.987z"/>
	<path style="fill:#4E685C;" d="M254.824,281.306c4.137-0.097,8.095,1.4,10.282,4.682c3.185,3.64,6.117,7.554,8.928,11.59
		c0.484-3.059,0.782-6.149,0.898-9.245c-5.929-4.65-11.771-8.897-18.416-9.627C255.902,279.55,255.333,280.414,254.824,281.306z"/>
	<path style="fill:#658174;" d="M274.604,278.078c-0.404-0.102-0.808-0.218-1.212-0.36c-1.319-0.465-2.758-0.86-4.269-1.185
		c-2.927-0.629-6.145-0.97-9.396-0.954c-0.194,0.001-0.389,0.01-0.583,0.014c-0.973,0.988-1.84,2.032-2.628,3.112
		c6.645,0.73,12.487,4.977,18.416,9.627C275.059,284.904,274.96,281.473,274.604,278.078z"/>
	<path style="fill:#788C4F;" d="M248.076,341.9c-0.079-5.488-0.185-11.28-0.309-17.524c-0.05-2.472-0.101-5.018-0.154-7.636
		c-2.439,0.759-4.815,1.614-6.769,2.989C242.36,327.315,244.959,334.881,248.076,341.9z"/>
	<path style="fill:#4E685C;" d="M250.42,295.834c0.146-0.097,0.3-0.183,0.453-0.271c0.227-4.984,1.46-9.886,3.951-14.258
		c-3.536,0.084-7.202,1.329-10.008,3.667c-0.25,0.222-0.48,0.462-0.723,0.69c-5.329,10.01-5.648,22.062-3.249,34.066
		c1.953-1.375,4.33-2.23,6.769-2.989c-0.1-4.846-0.203-9.953-0.31-15.386C247.26,299.081,248.537,297.086,250.42,295.834z"/>
	<path style="fill:#788C4F;" d="M248.051,279.738c-1.544,1.876-2.857,3.857-3.957,5.925c0.242-0.228,0.473-0.469,0.723-0.69
		c2.806-2.338,6.472-3.583,10.008-3.667c0.509-0.892,1.078-1.756,1.692-2.601C253.845,278.412,251.043,278.686,248.051,279.738z"/>
	<path style="fill:#92A866;" d="M253.531,276.075c-0.866,0.138-1.719,0.317-2.561,0.517c-1.056,1.01-2.026,2.061-2.92,3.147
		c2.992-1.052,5.794-1.326,8.466-1.033c0.788-1.08,1.655-2.124,2.628-3.112C257.263,275.627,255.376,275.783,253.531,276.075z"/>
	<path style="fill:#788C4F;" d="M240.845,319.729c-2.399-12.005-2.08-24.057,3.249-34.066c-4.544,4.307-7.727,9.898-9.14,15.968
		c0.06,1.085,0.147,2.176,0.268,3.271c0.621,5.631,1.966,11.355,3.453,16.843C239.311,320.968,240.037,320.298,240.845,319.729z"/>
	<path style="fill:#4E685C;" d="M248.198,354.056c-0.02-3.901-0.063-7.941-0.122-12.155c-3.117-7.02-5.716-14.586-7.231-22.171
		c-0.808,0.568-1.533,1.238-2.17,2.015c1.017,3.75,2.098,7.391,3.068,10.804c0.155,0.548,0.314,1.099,0.463,1.635
		c3.032,10.899-0.018,10.096,0.3,12.179c1.064,6.984,5.879,7.845,5.879,7.845C248.231,354.011,248.385,354.206,248.198,354.056z"/>
	<path style="fill:#4E685C;" d="M235.811,289.8c-0.89,3.764-1.093,7.753-0.857,11.831c1.413-6.069,4.596-11.661,9.14-15.968
		c1.1-2.067,2.413-4.049,3.957-5.925c-2.003,0.704-4.089,1.745-6.278,3.205C239.21,284.867,237.256,287.195,235.811,289.8z"/>
	<path style="fill:#658174;" d="M250.971,276.592c-4.58,1.086-8.724,3.103-11.592,6.32c-1.612,1.808-2.829,3.987-3.489,6.595
		c-0.02,0.076-0.045,0.146-0.063,0.223c-0.006,0.023-0.01,0.046-0.015,0.07c1.444-2.604,3.399-4.933,5.961-6.856
		c2.189-1.46,4.275-2.501,6.278-3.205C248.944,278.653,249.915,277.602,250.971,276.592z"/>
	<path style="fill:#4E685C;" d="M267.55,318.662c0.292,0.989,0.602,1.992,0.945,3.017c1.887,5.631,4.581,11.739,8.686,17.657
		c0.583,0.841,1.152,1.677,1.719,2.509c0.062,0.091,0.12,0.18,0.182,0.27c0.329-1.462,0.755-2.925,1.243-4.388
		c1.626-6.833,4.19-13.77,6.554-20.778c-4.297-6.376-8.42-13.023-12.844-19.371C272.87,304.95,270.668,312.127,267.55,318.662z"/>
	<path style="fill:#788C4F;" d="M274.933,288.332c-0.116,3.096-0.414,6.187-0.898,9.245c4.424,6.348,8.547,12.995,12.844,19.371
		c2.133-6.318,4.095-12.696,5.069-19.106c-2.242-0.026-4.45-0.543-6.551-1.71C281.766,293.798,278.334,291.001,274.933,288.332z"/>
	<path style="fill:#92A866;" d="M281.338,282.943c-1.319-1.759-3.022-3.327-5.022-4.54c-0.57-0.075-1.142-0.181-1.711-0.325
		c0.355,3.395,0.454,6.826,0.328,10.254c3.401,2.669,6.833,5.466,10.464,7.8c2.101,1.167,4.309,1.684,6.551,1.71
		c0.136-0.896,0.253-1.793,0.349-2.69C288.485,290.936,284.856,286.696,281.338,282.943z"/>
	<path style="fill:#658174;" d="M287.795,277.438c-0.429,0.066-0.874,0.126-1.295,0.195c-1.565,0.256-3.08,0.516-4.553,0.694
		c-1.921,0.233-3.782,0.321-5.632,0.076c2,1.213,3.703,2.781,5.022,4.54c3.518,3.753,7.147,7.993,10.958,12.208
		c0.6-5.666,0.323-11.354-1.381-17.05C289.885,277.847,288.845,277.626,287.795,277.438z"/>
	<path style="fill:#4E685C;" d="M289.603,277.164c-0.621,0.081-1.209,0.179-1.809,0.273c1.05,0.189,2.09,0.409,3.12,0.664
		c-0.105-0.352-0.196-0.702-0.313-1.053C290.269,277.087,289.932,277.121,289.603,277.164z"/>
	<path style="fill:#788C4F;" d="M280.324,337.727c-0.488,1.463-0.914,2.926-1.243,4.388c0.343,0.507,0.686,1.011,1.023,1.511
		c3.654,5.396,7.089,10.398,11.223,14.015c1.359-8.68,4.104-16.987,7.428-25.147c-4.305-4.726-8.159-10.03-11.877-15.544
		C284.514,323.957,281.95,330.894,280.324,337.727z"/>
	<path style="fill:#658174;" d="M292.296,295.151c-0.105,0.994-0.242,1.986-0.397,2.979c0.876-0.121,1.991-0.142,2.694-0.476
		C293.964,296.974,292.915,295.837,292.296,295.151z"/>
	<path style="fill:#4E685C;" d="M294.169,297.202c-0.703,0.334-1.395,0.808-2.27,0.929c-0.988,6.313-2.92,12.593-5.021,18.817
		c3.718,5.514,7.572,10.818,11.877,15.544c3.002-7.368,6.476-14.619,9.839-21.918C303.442,306.803,298.673,302.078,294.169,297.202z
		"/>
	<path style="fill:#4E685C;" d="M312.886,286.914c1.278,0.596,2.559,1.188,3.85,1.764c0.239-0.995,0.447-1.996,0.635-2.999
		C315.767,285.318,314.225,285.633,312.886,286.914z"/>
	<path style="fill:#658174;" d="M316.614,279.908c-0.741-0.58-1.615-1.164-2.688-1.791c-2.897-1.694-7.976-1.91-12.701-1.756
		c-0.063,0.002-0.123,0.005-0.186,0.007c-3.065,0.106-5.97,0.36-8.008,0.469c-0.832,0.044-1.636,0.123-2.43,0.212
		c0.116,0.351,0.207,0.701,0.313,1.053c7.624,1.883,14.721,5.428,21.971,8.813c1.339-1.281,2.881-1.596,4.484-1.235
		c0.282-1.511,0.506-3.024,0.629-4.528C317.592,280.729,317.139,280.319,316.614,279.908z"/>
	<path style="fill:#788C4F;" d="M294.593,297.655c4.38,4.715,9.01,9.265,14.001,12.919c1.433-3.11,2.848-6.227,4.194-9.369
		c1.389-3.822,2.892-8.12,3.947-12.527c-1.291-0.576-2.571-1.168-3.85-1.764c-0.031,0.03-0.065,0.055-0.098,0.088
		C307.961,291.828,301.259,296.651,294.593,297.655z"/>
	<path style="fill:#92A866;" d="M292.296,295.151c0.757,0.838,1.524,1.673,2.297,2.504c6.666-1.004,13.368-5.827,18.195-10.653
		c0.032-0.033,0.066-0.058,0.098-0.088c-7.25-3.385-14.347-6.93-21.971-8.813C292.619,283.797,292.896,289.485,292.296,295.151z"/>
	<path style="fill:#4E685C;" d="M325.575,299.185c-0.392-2.865-0.585-4.079-0.981-5.247c-0.293-0.865-0.703-1.716-1.388-3.185
		c-1.138-0.238-2.25-0.495-3.316-0.708c-1.06-0.44-2.107-0.901-3.154-1.367c-1.056,4.407-2.559,8.705-3.947,12.527
		c-1.347,3.142-2.762,6.259-4.194,9.369c4.67,3.418,9.65,6.056,15.037,7.3c0.765-2.418,1.446-4.847,2.005-7.295
		c0.116-2.929,0.174-5.592,0.145-7.713C325.758,301.326,325.694,300.059,325.575,299.185z"/>
	<path style="fill:#788C4F;" d="M316.735,288.678c1.047,0.466,2.095,0.927,3.154,1.367c1.066,0.213,2.179,0.47,3.316,0.708
		c-0.189-0.406-0.396-0.851-0.63-1.365c-0.151-0.333-0.292-0.646-0.432-0.954c-1.557-1.391-3.193-2.398-4.774-2.755
		C317.183,286.682,316.975,287.683,316.735,288.678z"/>
	<path style="fill:#92A866;" d="M317.999,281.15c-0.123,1.504-0.347,3.018-0.629,4.528c1.581,0.356,3.218,1.364,4.774,2.755
		c-0.564-1.254-1.04-2.328-1.495-3.27C319.862,283.542,319.11,282.301,317.999,281.15z"/>
	<path style="fill:#788C4F;" d="M298.755,332.492c4.277,4.693,9.006,8.805,14.484,11.981c3.567-8.9,7.569-17.669,10.392-26.6
		c-5.387-1.244-10.367-3.882-15.037-7.3C305.23,317.873,301.757,325.124,298.755,332.492z"/>
	<path style="fill:#4E685C;" d="M298.755,332.492c-3.324,8.16-6.068,16.468-7.428,25.147c2.712,2.373,5.723,4.155,9.303,5.041
		c1.607,0.397,3.679,1.438,5.9,2.699c1.483-7.139,3.967-14.063,6.709-20.906C307.761,341.297,303.032,337.185,298.755,332.492z"/>
	<path style="fill:#788C4F;" d="M321.979,348.447c-3.122-1.065-6.025-2.4-8.74-3.974c-2.742,6.844-5.226,13.768-6.709,20.906
		c0.121,0.068,0.24,0.135,0.36,0.204c7.139,4.09,15.676,10.205,15.676,4.786c0-1.439-0.228-5.789-0.402-10.665
		C322.026,355.894,321.922,351.768,321.979,348.447z"/>
	<path style="fill:#4E685C;" d="M313.239,344.474c2.715,1.573,5.618,2.908,8.74,3.974c0.05-2.825,0.217-5.07,0.587-6.018
		c0.16-0.412,0.336-1.207,0.519-2.271c0.728-4.246,1.575-13.059,2.124-21.551c0.01-0.141,0.018-0.279,0.026-0.42
		c-0.537-0.095-1.075-0.191-1.604-0.314C320.809,326.805,316.807,335.573,313.239,344.474z"/>
	<path style="fill:#788C4F;" d="M323.631,317.874c0.529,0.122,1.067,0.219,1.604,0.314c0.167-2.626,0.304-5.207,0.4-7.608
		C325.077,313.027,324.395,315.456,323.631,317.874z"/>
	<path style="fill:#EDE3DA;" d="M295.193,389.235c-0.265,0.675-0.512,0.386-1.542,0.485c-9.201-16.563,21.606-23.62,26.494-8.671
		c1.724,5.269,0.67,9.964-3.497,6.243c-2.49-2.222-4.748-7.164-7.987-8.081c-7.553-2.138-12.261,3.755-15.621,9.04
		c-0.233,0.365,0.843,1.107,0.611,1.469L295.193,389.235z"/>
	<path style="fill:#EDE3DA;" d="M250.751,389.721c-2.7-1.294-3.549-5.067-2.178-8.104c0.995-2.207,4.725-4.216,6.748-5.001
		c5.669-2.202,14.27-2.398,18.344,3.408c1.277,1.818,3.459,8.463-0.594,8.372c-1.228-0.028-5.771-5.815-8.089-6.526
		c-3.531-1.083-6.131-0.978-9.092,1.595C253.8,385.281,253.07,388.168,250.751,389.721L250.751,389.721z"/>
	<path style="fill:#946A40;" d="M250.955,387.733c-0.196,0.46-0.377,0.941-0.545,1.44c0.216-0.316,0.478-0.658,0.796-1.033
		l-0.911,1.367c0.036-0.114,0.078-0.222,0.115-0.334c-3.046,4.466,3.753,3.327,8.747,3.608c7.25,0.408,12.993,2.193,13.938-2.818
		c0.155-0.826,0.087-1.614-0.123-2.366C267.204,390.113,258.028,387.162,250.955,387.733z"/>
	<path style="fill:#A67C52;" d="M251.206,388.14c-0.318,0.375-0.58,0.717-0.796,1.033c-0.037,0.112-0.079,0.22-0.115,0.334
		L251.206,388.14z"/>
	<path style="fill:#A67C52;" d="M261.235,380.394c-5.13,0.312-8.395,2.938-10.28,7.34c7.073-0.571,16.249,2.38,22.017-0.137
		C271.734,383.169,264.923,380.168,261.235,380.394z"/>
	<path style="fill:#946A40;" d="M299,387c-1.249-0.416-3.018-1.008-4.368-1.915c-1.3,2.27-1.962,4.579-1.035,6.003
		c1.788,1.693,9.609,0.923,13.675,0.456c5.757-0.661,13.949,0.334,9.921-6.263c-0.113-0.186-0.253-0.372-0.39-0.559
		C312.138,387.478,303.783,387.598,299,387z"/>
	<path style="fill:#A67C52;" d="M300.991,378.426c-1.781,0.702-4.634,3.645-6.359,6.659c1.351,0.907,3.119,1.499,4.368,1.915
		c4.783,0.598,13.138,0.478,17.803-2.277C313.829,380.654,305.636,376.595,300.991,378.426z"/>
	<path style="fill:#291D12;" d="M274.186,391.801c0,0.896-0.727,1.623-1.624,1.623h-21.557c-0.895,0-1.623-0.727-1.623-1.623l0,0
		c0-0.898,0.728-1.624,1.623-1.624h21.557C273.459,390.177,274.186,390.903,274.186,391.801L274.186,391.801z"/>
	<path style="fill:#291D12;" d="M318.832,390.832c0,0.883-0.964,1.599-2.154,1.599h-21.484c-1.189,0-2.153-0.716-2.153-1.599l0,0
		c0-0.882,0.964-1.597,2.153-1.597h21.484C317.868,389.235,318.832,389.95,318.832,390.832L318.832,390.832z"/>
	<g id="Layer_5">
	</g>
	<path style="fill:#FFFFFF;" d="M143.202,223.442c0.319-2.762,4.858-6.438,7.502-5.683c-1.458-4.175-3.818-4.048-7.166-1.799
		c-1.701,1.143-2.535,1.61-2.431,3.447c0.07,1.23,0.868,2.428,1.482,3.366L143.202,223.442z"/>
	<path style="fill:#FFFFFF;" d="M143.689,218.893c1.026,1.59,1.097,3.369,0.159,3.974c-0.938,0.604-2.529-0.193-3.555-1.784
		c-1.026-1.589-1.098-3.369-0.16-3.974C141.071,216.505,142.664,217.303,143.689,218.893z"/>
	<path style="fill:#5572BA;" d="M143.35,219.112c0.821,1.272,0.878,2.695,0.128,3.179c-0.75,0.483-2.023-0.155-2.845-1.427
		c-0.82-1.271-0.877-2.695-0.127-3.179C141.256,217.202,142.529,217.84,143.35,219.112z"/>
</g>
</svg>
